<?xml version="1.0" encoding="UTF-8"?>
<svg xmlns="http://www.w3.org/2000/svg" xmlns:xlink="http://www.w3.org/1999/xlink" viewBox="0 0 120 60">
  <defs>
    <linearGradient id="linear-gradient" x1="-.3" y1="30" x2="120.32" y2="30" gradientUnits="userSpaceOnUse">
      <stop offset="0" stop-color="#ccedfa"/>
      <stop offset=".11" stop-color="#bde2f1"/>
      <stop offset=".32" stop-color="#97c7da"/>
      <stop offset=".62" stop-color="#5a9bb5"/>
      <stop offset=".97" stop-color="#065f83"/>
      <stop offset="1" stop-color="#005a7f"/>
    </linearGradient>
    <linearGradient id="linear-gradient-2" x1="125.24" y1="-102.66" x2="125.24" y2="-160.34" gradientTransform="translate(234.9 -75.27) rotate(-180)" gradientUnits="userSpaceOnUse">
      <stop offset="0" stop-color="#fff"/>
      <stop offset=".15" stop-color="#f6f6f6"/>
      <stop offset=".4" stop-color="#dededf"/>
      <stop offset=".72" stop-color="#b7b7ba"/>
      <stop offset="1" stop-color="#8e8f93"/>
    </linearGradient>
    <linearGradient id="linear-gradient-3" y1="-72.88" y2="-123.02" xlink:href="#linear-gradient-2"/>
    <linearGradient id="linear-gradient-4" x1="117.91" y1="-64.97" x2="117.91" y2="-102.66" xlink:href="#linear-gradient-2"/>
    <linearGradient id="linear-gradient-5" x1="133.76" y1="-85.34" x2="133.76" y2="-110.56" xlink:href="#linear-gradient-2"/>
    <linearGradient id="linear-gradient-6" x1="139.88" y1="-59.1" x2="139.88" y2="-76.48" xlink:href="#linear-gradient-2"/>
    <linearGradient id="linear-gradient-7" x1="190.87" y1="-27.27" x2="190.87" y2="-100.4" xlink:href="#linear-gradient-2"/>
    <linearGradient id="linear-gradient-8" x1="202.33" y1="-71.05" x2="202.33" y2="-91.86" xlink:href="#linear-gradient-2"/>
    <linearGradient id="linear-gradient-9" x1="224.07" y1="-61.95" x2="224.07" y2="-97.95" xlink:href="#linear-gradient-2"/>
    <linearGradient id="linear-gradient-10" x1="227.64" y1="-61.95" x2="227.64" y2="-120.38" xlink:href="#linear-gradient-2"/>
    <linearGradient id="linear-gradient-11" x1="164.59" y1="-73.13" x2="164.59" y2="-134.83" xlink:href="#linear-gradient-2"/>
    <linearGradient id="linear-gradient-12" x1="195.62" y1="-87.71" x2="195.62" y2="-120.26" xlink:href="#linear-gradient-2"/>
    <linearGradient id="linear-gradient-13" x1="153.22" y1="-82.35" x2="153.22" y2="-133.53" xlink:href="#linear-gradient-2"/>
    <linearGradient id="linear-gradient-14" x1="162.7" y1="-127.73" x2="162.7" y2="-159.77" xlink:href="#linear-gradient-2"/>
    <linearGradient id="linear-gradient-15" x1="179.92" y1="-123.81" x2="179.92" y2="-163.69" xlink:href="#linear-gradient-2"/>
    <linearGradient id="linear-gradient-16" x1="228.2" y1="-120.38" x2="228.2" y2="-160.34" xlink:href="#linear-gradient-2"/>
    <linearGradient id="linear-gradient-17" x1="224.13" y1="-97.95" x2="224.13" y2="-143.75" xlink:href="#linear-gradient-2"/>
    <linearGradient id="linear-gradient-18" x1="144.85" y1="388.16" x2="144.85" y2="198.25" gradientTransform="translate(288.14 -127.13) rotate(90)" xlink:href="#linear-gradient-2"/>
    <linearGradient id="linear-gradient-19" x1="157.13" y1="342.63" x2="157.13" y2="157.71" gradientTransform="translate(288.14 -127.13) rotate(90)" xlink:href="#linear-gradient-2"/>
    <linearGradient id="linear-gradient-20" x1="150.87" y1="254.98" x2="150.87" y2="238.35" gradientTransform="translate(288.14 -127.13) rotate(90)" xlink:href="#linear-gradient-2"/>
    <linearGradient id="linear-gradient-21" x1="157.13" y1="304.25" x2="157.13" y2="223.61" gradientTransform="translate(288.14 -127.13) rotate(90)" xlink:href="#linear-gradient-2"/>
    <linearGradient id="linear-gradient-22" x1="177.21" y1="278.98" x2="177.21" y2="248.89" gradientTransform="translate(288.14 -127.13) rotate(90)" xlink:href="#linear-gradient-2"/>
    <linearGradient id="linear-gradient-23" x1="155.1" y1="244.98" x2="155.1" y2="220.83" gradientTransform="translate(288.14 -127.13) rotate(90)" xlink:href="#linear-gradient-2"/>
    <linearGradient id="linear-gradient-24" x1="174.45" y1="260.12" x2="174.45" y2="208.65" gradientTransform="translate(288.14 -127.13) rotate(90)" xlink:href="#linear-gradient-2"/>
    <linearGradient id="linear-gradient-25" x1="182.3" y1="239.85" x2="182.3" y2="206.94" gradientTransform="translate(288.14 -127.13) rotate(90)" xlink:href="#linear-gradient-2"/>
    <linearGradient id="linear-gradient-26" x1="129.3" y1="227.59" x2="129.3" y2="194.09" gradientTransform="translate(288.14 -127.13) rotate(90)" xlink:href="#linear-gradient-2"/>
    <linearGradient id="linear-gradient-27" x1="148.25" y1="217.66" x2="148.25" y2="204.02" gradientTransform="translate(288.14 -127.13) rotate(90)" xlink:href="#linear-gradient-2"/>
    <linearGradient id="linear-gradient-28" x1="132.12" y1="240.58" x2="132.12" y2="173.33" gradientTransform="translate(288.14 -127.13) rotate(90)" xlink:href="#linear-gradient-2"/>
    <linearGradient id="linear-gradient-29" x1="130.63" y1="193.81" x2="130.63" y2="149.93" gradientTransform="translate(288.14 -127.13) rotate(90)" xlink:href="#linear-gradient-2"/>
    <linearGradient id="linear-gradient-30" x1="142.53" y1="184.11" x2="142.53" y2="159.63" gradientTransform="translate(288.14 -127.13) rotate(90)" xlink:href="#linear-gradient-2"/>
    <linearGradient id="linear-gradient-31" x1="172.5" y1="204.58" x2="172.5" y2="145.81" gradientTransform="translate(288.14 -127.13) rotate(90)" xlink:href="#linear-gradient-2"/>
    <linearGradient id="linear-gradient-32" x1="176.73" y1="214.14" x2="176.73" y2="174.48" gradientTransform="translate(288.14 -127.13) rotate(90)" xlink:href="#linear-gradient-2"/>
    <linearGradient id="linear-gradient-33" x1="159.43" y1="169.39" x2="159.43" y2="158.09" gradientTransform="translate(288.14 -127.13) rotate(90)" xlink:href="#linear-gradient-2"/>
    <linearGradient id="linear-gradient-34" x1="-73.32" y1="-139.48" x2="-31.29" y2="-53.67" gradientTransform="translate(128.6 -8.6) rotate(-90)" gradientUnits="userSpaceOnUse">
      <stop offset="0" stop-color="#fff"/>
      <stop offset=".08" stop-color="#f6f6f6"/>
      <stop offset=".22" stop-color="#dedede"/>
      <stop offset=".4" stop-color="#b6b6b6"/>
      <stop offset=".6" stop-color="gray"/>
      <stop offset=".82" stop-color="#3b3b3b"/>
      <stop offset="1" stop-color="#000"/>
    </linearGradient>
  </defs>
  <g style="isolation: isolate;">
    <g id="Layer_1" data-name="Layer 1">
      <g>
        <rect width="120" height="60" style="fill: url(#linear-gradient);"/>
        <g>
          <g style="mix-blend-mode: overlay; opacity: .64;">
            <polygon points="120 60 120 32.25 99.31 47.75 108.23 60 120 60" style="fill: url(#linear-gradient-2);"/>
            <polygon points="120 13.2 113.98 0 112.25 0 99.31 47.75 120 32.25 120 13.2" style="fill: url(#linear-gradient-3);"/>
            <polygon points="120 0 113.98 0 120 13.2 120 0" style="fill: url(#linear-gradient-4);"/>
            <polygon points="100.22 35.29 95.22 18.04 107.05 10.07 100.22 35.29" style="fill: url(#linear-gradient-5); opacity: .72;"/>
            <polygon points="94.01 0 94.21 1.22 96.02 0 94.01 0" style="fill: url(#linear-gradient-6); opacity: .58;"/>
            <polygon points="57.04 0 53.96 3.29 86.04 9.84 84.4 0 57.04 0" style="fill: #d4d7d9; opacity: .98;"/>
            <polygon points="34.42 0 32.24 25.14 55.8 0 34.42 0" style="fill: url(#linear-gradient-7); opacity: .86;"/>
            <polygon points="24.18 0 21.18 16.59 43.96 5.77 32.96 0 24.18 0" style="fill: url(#linear-gradient-8); opacity: .65;"/>
            <polygon points="3.04 0 14.52 22.68 18.62 0 3.04 0" style="fill: url(#linear-gradient-9);"/>
            <polygon points="0 40.55 14.52 22.68 3.04 0 0 0 0 40.55" style="fill: url(#linear-gradient-10);"/>
            <polygon points="44.83 0 62.06 59.57 95.79 8.4 54.69 0 44.83 0" style="fill: url(#linear-gradient-11); opacity: .56;"/>
            <polygon points="56.66 44.99 21.89 24.48 47.24 12.44 56.66 44.99" style="fill: url(#linear-gradient-12); opacity: .94;"/>
            <polygon points="105.15 52.74 58.19 58.26 91.92 7.08 105.15 52.74" style="fill: url(#linear-gradient-13); opacity: .59;"/>
            <polygon points="99.14 60 97.22 57.37 80.12 59.38 81.3 60 99.14 60" style="fill: #a3a6a9; opacity: .66;"/>
            <polygon points="79.29 60 65.1 52.46 68.07 60 79.29 60" style="fill: url(#linear-gradient-14); opacity: .83;"/>
            <polygon points="56.88 60 71.91 53.9 6.64 15.4 15.03 60 56.88 60" style="fill: #edf0f1; opacity: .64;"/>
            <polygon points="71.37 60 66.85 48.54 38.59 60 71.37 60" style="fill: url(#linear-gradient-15); opacity: .73;"/>
            <polygon points="13.39 60 0 48.34 0 60 13.39 60" style="fill: url(#linear-gradient-16);"/>
            <polygon points="21.53 60 14.52 22.68 0 40.55 0 48.34 13.39 60 21.53 60" style="fill: url(#linear-gradient-17);"/>
          </g>
          <g style="mix-blend-mode: overlay;">
            <polygon points="48.09 0 49.02 .91 49.2 0 48.09 0" style="fill: #d4d7d9; mix-blend-mode: multiply; opacity: .52;"/>
            <polygon points="0 13.01 89.89 35.44 65.43 0 0 0 0 13.01" style="fill: url(#linear-gradient-18); mix-blend-mode: multiply; opacity: .34;"/>
            <polygon points="106.27 60 44.81 0 0 0 0 60 106.27 60" style="fill: url(#linear-gradient-19); mix-blend-mode: multiply; opacity: .86;"/>
            <polygon points="0 27.82 0 50.83 25.25 35.56 0 27.82" style="fill: #d4d7d9; mix-blend-mode: multiply; opacity: .83;"/>
            <polygon points="38.81 60 12.13 35.41 0 42.74 0 60 38.81 60" style="fill: #d4d7d9; mix-blend-mode: multiply; opacity: .71;"/>
            <polygon points="0 6.38 0 22.29 9.34 39.55 27.55 7.84 0 6.38" style="fill: #d4d7d9; mix-blend-mode: multiply; opacity: .56;"/>
            <polygon points="49.79 14.74 39.95 34.25 33.16 13.24 49.79 14.74" style="fill: url(#linear-gradient-20); mix-blend-mode: multiply; opacity: .98;"/>
            <polygon points="61.72 60 42.32 0 23.31 0 0 40.6 0 60 61.72 60" style="fill: url(#linear-gradient-21); mix-blend-mode: multiply; opacity: .36;"/>
            <polygon points="36.88 60 39.25 40.16 9.16 40.16 30.69 60 36.88 60" style="fill: url(#linear-gradient-22); mix-blend-mode: multiply; opacity: .98;"/>
            <polygon points="54.75 14.2 67.3 41.73 43.16 37.19 54.75 14.2" style="fill: url(#linear-gradient-23); mix-blend-mode: multiply; opacity: .96;"/>
            <polygon points="48.23 60 79.49 43.52 32.33 34.64 29.3 60 48.23 60" style="fill: url(#linear-gradient-24); mix-blend-mode: multiply; opacity: .54;"/>
            <polygon points="79.98 60 68.57 50.34 50.25 60 79.98 60" style="fill: url(#linear-gradient-25); mix-blend-mode: multiply; opacity: .81;"/>
            <polygon points="61.4 0 60.55 4.35 75 0 61.4 0" style="fill: url(#linear-gradient-26); mix-blend-mode: multiply; opacity: .52;"/>
            <polygon points="84.12 13.54 75.53 28.71 70.48 17.65 84.12 13.54" style="fill: url(#linear-gradient-27); mix-blend-mode: multiply; opacity: .65;"/>
            <polygon points="100.26 0 114.8 9.99 113.68 0 100.26 0" style="fill: url(#linear-gradient-28); mix-blend-mode: multiply; opacity: .89;"/>
            <polygon points="97.9 0 94.33 7 111.37 0 97.9 0" style="fill: url(#linear-gradient-29); mix-blend-mode: multiply; opacity: .73;"/>
            <polygon points="120 60 120 0 86.8 0 52.82 60 120 60" style="fill: #edf0f1; mix-blend-mode: multiply; opacity: .62;"/>
            <polygon points="120 0 104.28 0 116.27 30.81 120 18.16 120 0" style="fill: url(#linear-gradient-30); mix-blend-mode: multiply; opacity: .65;"/>
            <polygon points="120 60 120 34.23 117.93 30.75 93.47 60 120 60" style="fill: url(#linear-gradient-31); mix-blend-mode: multiply; opacity: .69;"/>
            <polygon points="96.26 60 113.66 39.2 74 46.96 89.41 60 96.26 60" style="fill: url(#linear-gradient-32); mix-blend-mode: multiply; opacity: .56;"/>
            <polygon points="120 29.13 118.75 33.38 120 35.48 120 29.13" style="fill: url(#linear-gradient-33); mix-blend-mode: multiply; opacity: .92;"/>
          </g>
          <rect width="120" height="60" style="fill: url(#linear-gradient-34); mix-blend-mode: screen;"/>
        </g>
      </g>
    </g>
  </g>
</svg>