<?xml version="1.0" encoding="UTF-8"?>
<svg xmlns="http://www.w3.org/2000/svg" xmlns:xlink="http://www.w3.org/1999/xlink" viewBox="0 0 25 17">
  <defs>
    <style>
      .cls-1 {
        fill: #fff;
      }

      .cls-2 {
        fill: #dff1ff;
      }

      .cls-3 {
        fill: #5786ff;
      }

      .cls-4 {
        fill: #8db3ff;
      }

      .cls-5 {
        fill: #d2e7ff;
      }

      .cls-6 {
        fill: #e3f5ff;
      }

      .cls-7 {
        fill: #2751f9;
      }

      .cls-8 {
        fill: #c8e1ff;
      }

      .cls-9 {
        fill: #fdffff;
      }

      .cls-10 {
        isolation: isolate;
      }

      .cls-11 {
        fill: #4171ff;
      }

      .cls-12 {
        fill: #749dff;
      }

      .cls-13 {
        fill: #e7f7ff;
      }

      .cls-14 {
        fill: #a0c1ff;
      }

      .cls-15 {
        fill: #83aaff;
      }

      .cls-16 {
        fill: #6692ff;
      }

      .cls-17 {
        fill: #92b6ff;
      }

      .cls-18 {
        fill: #3c6dff;
      }

      .cls-19 {
        fill: #95b8ff;
      }

      .cls-20 {
        fill: #6490ff;
      }

      .cls-21 {
        fill: #a9c8ff;
      }

      .cls-22 {
        fill: #98bcff;
      }

      .cls-23 {
        fill: #accaff;
      }

      .cls-24 {
        fill: #4474ff;
      }

      .cls-25 {
        fill: #3f70ff;
      }

      .cls-26 {
        fill: #4877ff;
      }

      .cls-27 {
        fill: #c1dbff;
      }

      .cls-28 {
        fill: #f9ffff;
      }

      .cls-29 {
        fill: #4a7aff;
      }

      .cls-30 {
        fill: #80a7ff;
      }

      .cls-31 {
        fill: #719bff;
      }

      .cls-32 {
        mix-blend-mode: screen;
      }

      .cls-33 {
        fill: #6d98ff;
      }

      .cls-34 {
        fill: #f1ffff;
      }

      .cls-35 {
        fill: #315eff;
      }

      .cls-36 {
        fill: #b8d4ff;
      }

      .cls-37 {
        fill: #4d7dff;
      }

      .cls-38 {
        fill: #edfbff;
      }

      .cls-39 {
        fill: #a5c5ff;
      }

      .cls-40 {
        fill: #b5d2ff;
      }

      .cls-41 {
        fill: #6a95ff;
      }

      .cls-42 {
        fill: #7ba4ff;
      }

      .cls-43 {
        fill: #b1ceff;
      }

      .cls-44 {
        fill: #3462ff;
      }

      .cls-45 {
        fill: #5987ff;
      }

      .cls-46 {
        fill: #9dbfff;
      }

      .cls-47 {
        fill: #8ab0ff;
      }

      .cls-48 {
        fill: #dbefff;
      }

      .cls-49 {
        fill: url(#radial-gradient);
        mix-blend-mode: soft-light;
      }

      .cls-50 {
        fill: #bed7ff;
      }

      .cls-51 {
        fill: #c5ddff;
      }

      .cls-52 {
        fill: #5383ff;
      }

      .cls-53 {
        fill: #cee5ff;
      }

      .cls-54 {
        fill: #5180ff;
      }

      .cls-55 {
        fill: #3766ff;
      }

      .cls-56 {
        fill: #608dff;
      }

      .cls-57 {
        fill: #5d8aff;
      }

      .cls-58 {
        fill: #78a2ff;
      }

      .cls-59 {
        fill: #86acff;
      }

      .cls-60 {
        fill: #f5ffff;
      }

      .cls-61 {
        fill: #d5ebff;
      }

      .cls-62 {
        fill: #3969ff;
      }
    </style>
    <radialGradient id="radial-gradient" cx="12.14" cy="-3.74" fx="12.14" fy="-3.74" r="22.5" gradientTransform="translate(0 17) scale(1 -1)" gradientUnits="userSpaceOnUse">
      <stop offset="0" stop-color="#fff" stop-opacity="0"/>
      <stop offset=".13" stop-color="#c6c8dc" stop-opacity=".21"/>
      <stop offset=".36" stop-color="#7075a7" stop-opacity=".53"/>
      <stop offset=".59" stop-color="#323980" stop-opacity=".76"/>
      <stop offset=".81" stop-color="#0c1569" stop-opacity=".9"/>
      <stop offset="1" stop-color="#000962" stop-opacity=".95"/>
    </radialGradient>
  </defs>
  <g class="cls-10">
    <g id="Layer_1" data-name="Layer 1">
      <g>
        <g>
          <g>
            <polygon class="cls-37" points="25 .94 23.96 .94 24.62 0 25 0 25 .94"/>
            <polygon class="cls-54" points="23.4 0 24.62 0 23.96 .94 22.73 .94 23.4 0"/>
            <polygon class="cls-45" points="22.17 0 23.4 0 22.73 .94 21.51 .94 22.17 0"/>
            <polygon class="cls-20" points="20.95 0 22.17 0 21.51 .94 20.28 .94 20.95 0"/>
            <polygon class="cls-30" points="19.72 0 20.95 0 20.28 .94 19.06 .94 19.72 0"/>
            <polygon class="cls-23" points="18.5 0 19.72 0 19.06 .94 17.83 .94 18.5 0"/>
            <polygon class="cls-40" points="17.27 0 18.5 0 17.83 .94 16.61 .94 17.27 0"/>
            <polygon class="cls-46" points="16.05 0 17.27 0 16.61 .94 15.39 .94 16.05 0"/>
            <polygon class="cls-15" points="14.82 0 16.05 0 15.39 .94 14.16 .94 14.82 0"/>
            <polygon class="cls-58" points="13.6 0 14.82 0 14.16 .94 12.94 .94 13.6 0"/>
            <polygon class="cls-31" points="12.37 0 13.6 0 12.94 .94 11.71 .94 12.37 0"/>
            <polygon class="cls-41" points="11.15 0 12.37 0 11.71 .94 10.49 .94 11.15 0"/>
            <polygon class="cls-59" points="9.92 0 11.15 0 10.49 .94 9.26 .94 9.92 0"/>
            <polygon class="cls-56" points="8.7 0 9.92 0 9.26 .94 8.04 .94 8.7 0"/>
            <polygon class="cls-52" points="7.47 0 8.7 0 8.04 .94 6.81 .94 7.47 0"/>
            <polygon class="cls-26" points="6.25 0 7.47 0 6.81 .94 5.59 .94 6.25 0"/>
            <polygon class="cls-54" points="5.02 0 6.25 0 5.59 .94 4.36 .94 5.02 0"/>
            <polygon class="cls-25" points="3.8 0 5.02 0 4.36 .94 3.14 .94 3.8 0"/>
            <polygon class="cls-18" points="2.57 0 3.8 0 3.14 .94 1.91 .94 2.57 0"/>
            <polygon class="cls-37" points="1.35 0 2.57 0 1.91 .94 .69 .94 1.35 0"/>
            <polygon class="cls-62" points=".69 .94 0 .94 0 .17 .12 0 1.35 0 .69 .94"/>
            <polygon class="cls-44" points="25 1.89 24.52 1.89 25 1.21 25 1.89"/>
            <polygon class="cls-55" points="25 1.21 24.52 1.89 23.3 1.89 23.96 .94 25 .94 25 1.21"/>
            <polygon class="cls-55" points="22.73 .94 23.96 .94 23.3 1.89 22.07 1.89 22.73 .94"/>
            <polygon class="cls-29" points="21.51 .94 22.73 .94 22.07 1.89 20.85 1.89 21.51 .94"/>
            <polygon class="cls-16" points="20.28 .94 21.51 .94 20.85 1.89 19.62 1.89 20.28 .94"/>
            <polygon class="cls-12" points="19.06 .94 20.28 .94 19.62 1.89 18.4 1.89 19.06 .94"/>
            <polygon class="cls-46" points="17.83 .94 19.06 .94 18.4 1.89 17.17 1.89 17.83 .94"/>
            <polygon class="cls-50" points="16.61 .94 17.83 .94 17.17 1.89 15.95 1.89 16.61 .94"/>
            <polygon class="cls-21" points="15.39 .94 16.61 .94 15.95 1.89 14.72 1.89 15.39 .94"/>
            <polygon class="cls-13" points="14.16 .94 15.39 .94 14.72 1.89 13.5 1.89 14.16 .94"/>
            <polygon class="cls-30" points="12.94 .94 14.16 .94 13.5 1.89 12.27 1.89 12.94 .94"/>
            <polygon class="cls-59" points="11.71 .94 12.94 .94 12.27 1.89 11.05 1.89 11.71 .94"/>
            <polygon class="cls-19" points="10.49 .94 11.71 .94 11.05 1.89 9.82 1.89 10.49 .94"/>
            <polygon class="cls-43" points="9.26 .94 10.49 .94 9.82 1.89 8.6 1.89 9.26 .94"/>
            <polygon class="cls-12" points="8.04 .94 9.26 .94 8.6 1.89 7.37 1.89 8.04 .94"/>
            <polygon class="cls-30" points="6.81 .94 8.04 .94 7.37 1.89 6.15 1.89 6.81 .94"/>
            <polygon class="cls-16" points="5.59 .94 6.81 .94 6.15 1.89 4.92 1.89 5.59 .94"/>
            <polygon class="cls-21" points="4.36 .94 5.59 .94 4.92 1.89 3.7 1.89 4.36 .94"/>
            <polygon class="cls-31" points="3.14 .94 4.36 .94 3.7 1.89 2.47 1.89 3.14 .94"/>
            <polygon class="cls-47" points="1.91 .94 3.14 .94 2.47 1.89 1.25 1.89 1.91 .94"/>
            <polygon class="cls-24" points=".69 .94 1.91 .94 1.25 1.89 .02 1.89 .69 .94"/>
            <polygon class="cls-55" points="0 .94 .69 .94 .02 1.89 0 1.89 0 .94"/>
            <polygon class="cls-44" points="25 2.83 23.86 2.83 24.52 1.89 25 1.89 25 2.83"/>
            <polygon class="cls-25" points="23.3 1.89 24.52 1.89 23.86 2.83 22.64 2.83 23.3 1.89"/>
            <polygon class="cls-54" points="22.07 1.89 23.3 1.89 22.64 2.83 21.41 2.83 22.07 1.89"/>
            <polygon class="cls-29" points="20.85 1.89 22.07 1.89 21.41 2.83 20.19 2.83 20.85 1.89"/>
            <polygon class="cls-54" points="19.62 1.89 20.85 1.89 20.19 2.83 18.96 2.83 19.62 1.89"/>
            <polygon class="cls-45" points="18.4 1.89 19.62 1.89 18.96 2.83 17.74 2.83 18.4 1.89"/>
            <polygon class="cls-30" points="17.17 1.89 18.4 1.89 17.74 2.83 16.51 2.83 17.17 1.89"/>
            <polygon class="cls-13" points="15.95 1.89 17.17 1.89 16.51 2.83 15.29 2.83 15.95 1.89"/>
            <polygon class="cls-21" points="14.72 1.89 15.95 1.89 15.29 2.83 14.06 2.83 14.72 1.89"/>
            <polygon class="cls-1" points="13.5 1.89 14.72 1.89 14.06 2.83 12.84 2.83 13.5 1.89"/>
            <polygon class="cls-43" points="12.27 1.89 13.5 1.89 12.84 2.83 11.61 2.83 12.27 1.89"/>
            <polygon class="cls-1" points="11.05 1.89 12.27 1.89 11.61 2.83 10.39 2.83 11.05 1.89"/>
            <polygon class="cls-28" points="9.82 1.89 11.05 1.89 10.39 2.83 9.16 2.83 9.82 1.89"/>
            <polygon class="cls-38" points="8.6 1.89 9.82 1.89 9.16 2.83 7.94 2.83 8.6 1.89"/>
            <polygon class="cls-47" points="7.37 1.89 8.6 1.89 7.94 2.83 6.71 2.83 7.37 1.89"/>
            <polygon class="cls-42" points="6.15 1.89 7.37 1.89 6.71 2.83 5.49 2.83 6.15 1.89"/>
            <polygon class="cls-42" points="4.92 1.89 6.15 1.89 5.49 2.83 4.26 2.83 4.92 1.89"/>
            <polygon class="cls-41" points="3.7 1.89 4.92 1.89 4.26 2.83 3.04 2.83 3.7 1.89"/>
            <polygon class="cls-20" points="2.47 1.89 3.7 1.89 3.04 2.83 1.81 2.83 2.47 1.89"/>
            <polygon class="cls-33" points="1.25 1.89 2.47 1.89 1.81 2.83 .59 2.83 1.25 1.89"/>
            <polygon class="cls-11" points=".59 2.83 0 2.83 0 1.92 .02 1.89 1.25 1.89 .59 2.83"/>
            <polygon class="cls-35" points="25 3.78 24.42 3.78 25 2.96 25 3.78"/>
            <polygon class="cls-25" points="25 2.96 24.42 3.78 23.2 3.78 23.86 2.83 25 2.83 25 2.96"/>
            <polygon class="cls-18" points="22.64 2.83 23.86 2.83 23.2 3.78 21.97 3.78 22.64 2.83"/>
            <polygon class="cls-24" points="21.41 2.83 22.64 2.83 21.97 3.78 20.75 3.78 21.41 2.83"/>
            <polygon class="cls-11" points="20.19 2.83 21.41 2.83 20.75 3.78 19.52 3.78 20.19 2.83"/>
            <polygon class="cls-41" points="18.96 2.83 20.19 2.83 19.52 3.78 18.3 3.78 18.96 2.83"/>
            <polygon class="cls-4" points="17.74 2.83 18.96 2.83 18.3 3.78 17.07 3.78 17.74 2.83"/>
            <polygon class="cls-30" points="16.51 2.83 17.74 2.83 17.07 3.78 15.85 3.78 16.51 2.83"/>
            <polygon class="cls-53" points="15.29 2.83 16.51 2.83 15.85 3.78 14.62 3.78 15.29 2.83"/>
            <polygon class="cls-8" points="14.06 2.83 15.29 2.83 14.62 3.78 13.4 3.78 14.06 2.83"/>
            <polygon class="cls-40" points="12.84 2.83 14.06 2.83 13.4 3.78 12.17 3.78 12.84 2.83"/>
            <polygon class="cls-13" points="11.61 2.83 12.84 2.83 12.17 3.78 10.95 3.78 11.61 2.83"/>
            <polygon class="cls-38" points="10.39 2.83 11.61 2.83 10.95 3.78 9.72 3.78 10.39 2.83"/>
            <polygon class="cls-1" points="9.16 2.83 10.39 2.83 9.72 3.78 8.5 3.78 9.16 2.83"/>
            <polygon class="cls-61" points="7.94 2.83 9.16 2.83 8.5 3.78 7.27 3.78 7.94 2.83"/>
            <polygon class="cls-27" points="6.71 2.83 7.94 2.83 7.27 3.78 6.05 3.78 6.71 2.83"/>
            <polygon class="cls-57" points="5.49 2.83 6.71 2.83 6.05 3.78 4.82 3.78 5.49 2.83"/>
            <polygon class="cls-21" points="4.26 2.83 5.49 2.83 4.82 3.78 3.6 3.78 4.26 2.83"/>
            <polygon class="cls-61" points="3.04 2.83 4.26 2.83 3.6 3.78 2.37 3.78 3.04 2.83"/>
            <polygon class="cls-39" points="1.81 2.83 3.04 2.83 2.37 3.78 1.15 3.78 1.81 2.83"/>
            <polygon class="cls-41" points="1.15 3.78 0 3.78 0 3.67 .59 2.83 1.81 2.83 1.15 3.78"/>
            <polygon class="cls-26" points="0 3.67 0 2.83 .59 2.83 0 3.67"/>
            <polygon class="cls-35" points="25 4.7 24.99 4.72 23.76 4.72 24.42 3.78 25 3.78 25 4.7"/>
            <polygon class="cls-44" points="23.2 3.78 24.42 3.78 23.76 4.72 22.54 4.72 23.2 3.78"/>
            <polygon class="cls-44" points="21.97 3.78 23.2 3.78 22.54 4.72 21.31 4.72 21.97 3.78"/>
            <polygon class="cls-54" points="20.75 3.78 21.97 3.78 21.31 4.72 20.09 4.72 20.75 3.78"/>
            <polygon class="cls-45" points="19.52 3.78 20.75 3.78 20.09 4.72 18.86 4.72 19.52 3.78"/>
            <polygon class="cls-46" points="18.3 3.78 19.52 3.78 18.86 4.72 17.64 4.72 18.3 3.78"/>
            <polygon class="cls-39" points="17.07 3.78 18.3 3.78 17.64 4.72 16.41 4.72 17.07 3.78"/>
            <polygon class="cls-59" points="15.85 3.78 17.07 3.78 16.41 4.72 15.19 4.72 15.85 3.78"/>
            <polygon class="cls-14" points="14.62 3.78 15.85 3.78 15.19 4.72 13.96 4.72 14.62 3.78"/>
            <polygon class="cls-46" points="13.4 3.78 14.62 3.78 13.96 4.72 12.74 4.72 13.4 3.78"/>
            <polygon class="cls-40" points="12.17 3.78 13.4 3.78 12.74 4.72 11.51 4.72 12.17 3.78"/>
            <polygon class="cls-8" points="10.95 3.78 12.17 3.78 11.51 4.72 10.29 4.72 10.95 3.78"/>
            <polygon class="cls-48" points="9.72 3.78 10.95 3.78 10.29 4.72 9.06 4.72 9.72 3.78"/>
            <polygon class="cls-9" points="8.5 3.78 9.72 3.78 9.06 4.72 7.84 4.72 8.5 3.78"/>
            <polygon class="cls-1" points="7.27 3.78 8.5 3.78 7.84 4.72 6.61 4.72 7.27 3.78"/>
            <polygon class="cls-21" points="6.05 3.78 7.27 3.78 6.61 4.72 5.39 4.72 6.05 3.78"/>
            <polygon class="cls-15" points="4.82 3.78 6.05 3.78 5.39 4.72 4.16 4.72 4.82 3.78"/>
            <polygon class="cls-36" points="3.6 3.78 4.82 3.78 4.16 4.72 2.94 4.72 3.6 3.78"/>
            <polygon class="cls-28" points="2.37 3.78 3.6 3.78 2.94 4.72 1.71 4.72 2.37 3.78"/>
            <polygon class="cls-1" points="1.15 3.78 2.37 3.78 1.71 4.72 .49 4.72 1.15 3.78"/>
            <polygon class="cls-53" points="0 3.78 1.15 3.78 .49 4.72 0 4.72 0 3.78"/>
            <polygon class="cls-7" points="25 5.67 24.32 5.67 24.99 4.72 25 4.72 25 5.67"/>
            <polygon class="cls-18" points="23.76 4.72 24.99 4.72 24.32 5.67 23.1 5.67 23.76 4.72"/>
            <polygon class="cls-24" points="22.54 4.72 23.76 4.72 23.1 5.67 21.87 5.67 22.54 4.72"/>
            <polygon class="cls-29" points="21.31 4.72 22.54 4.72 21.87 5.67 20.65 5.67 21.31 4.72"/>
            <polygon class="cls-16" points="20.09 4.72 21.31 4.72 20.65 5.67 19.42 5.67 20.09 4.72"/>
            <polygon class="cls-3" points="18.86 4.72 20.09 4.72 19.42 5.67 18.2 5.67 18.86 4.72"/>
            <polygon class="cls-56" points="17.64 4.72 18.86 4.72 18.2 5.67 16.98 5.67 17.64 4.72"/>
            <polygon class="cls-15" points="16.41 4.72 17.64 4.72 16.98 5.67 15.75 5.67 16.41 4.72"/>
            <polygon class="cls-59" points="15.19 4.72 16.41 4.72 15.75 5.67 14.53 5.67 15.19 4.72"/>
            <polygon class="cls-23" points="13.96 4.72 15.19 4.72 14.53 5.67 13.3 5.67 13.96 4.72"/>
            <polygon class="cls-61" points="12.74 4.72 13.96 4.72 13.3 5.67 12.08 5.67 12.74 4.72"/>
            <polygon class="cls-4" points="11.51 4.72 12.74 4.72 12.08 5.67 10.85 5.67 11.51 4.72"/>
            <polygon class="cls-2" points="10.29 4.72 11.51 4.72 10.85 5.67 9.63 5.67 10.29 4.72"/>
            <polygon class="cls-2" points="9.06 4.72 10.29 4.72 9.63 5.67 8.4 5.67 9.06 4.72"/>
            <polygon class="cls-1" points="7.84 4.72 9.06 4.72 8.4 5.67 7.18 5.67 7.84 4.72"/>
            <polygon class="cls-34" points="6.61 4.72 7.84 4.72 7.18 5.67 5.95 5.67 6.61 4.72"/>
            <polygon class="cls-9" points="5.39 4.72 6.61 4.72 5.95 5.67 4.73 5.67 5.39 4.72"/>
            <polygon class="cls-2" points="4.16 4.72 5.39 4.72 4.73 5.67 3.5 5.67 4.16 4.72"/>
            <polygon class="cls-13" points="2.94 4.72 4.16 4.72 3.5 5.67 2.28 5.67 2.94 4.72"/>
            <polygon class="cls-1" points="1.71 4.72 2.94 4.72 2.28 5.67 1.05 5.67 1.71 4.72"/>
            <polygon class="cls-38" points="1.05 5.67 0 5.67 0 5.42 .49 4.72 1.71 4.72 1.05 5.67"/>
            <polygon class="cls-1" points="0 5.42 0 4.72 .49 4.72 0 5.42"/>
            <polygon class="cls-26" points="25 6.61 24.89 6.61 25 6.45 25 6.61"/>
            <polygon class="cls-26" points="25 6.45 24.89 6.61 23.66 6.61 24.32 5.67 25 5.67 25 6.45"/>
            <polygon class="cls-25" points="23.1 5.67 24.32 5.67 23.66 6.61 22.44 6.61 23.1 5.67"/>
            <polygon class="cls-11" points="21.87 5.67 23.1 5.67 22.44 6.61 21.21 6.61 21.87 5.67"/>
            <polygon class="cls-37" points="20.65 5.67 21.87 5.67 21.21 6.61 19.99 6.61 20.65 5.67"/>
            <polygon class="cls-56" points="19.42 5.67 20.65 5.67 19.99 6.61 18.76 6.61 19.42 5.67"/>
            <polygon class="cls-3" points="18.2 5.67 19.42 5.67 18.76 6.61 17.54 6.61 18.2 5.67"/>
            <polygon class="cls-15" points="16.98 5.67 18.2 5.67 17.54 6.61 16.31 6.61 16.98 5.67"/>
            <polygon class="cls-47" points="15.75 5.67 16.98 5.67 16.31 6.61 15.09 6.61 15.75 5.67"/>
            <polygon class="cls-31" points="14.53 5.67 15.75 5.67 15.09 6.61 13.86 6.61 14.53 5.67"/>
            <polygon class="cls-22" points="13.3 5.67 14.53 5.67 13.86 6.61 12.64 6.61 13.3 5.67"/>
            <polygon class="cls-27" points="12.08 5.67 13.3 5.67 12.64 6.61 11.41 6.61 12.08 5.67"/>
            <polygon class="cls-50" points="10.85 5.67 12.08 5.67 11.41 6.61 10.19 6.61 10.85 5.67"/>
            <polygon class="cls-27" points="9.63 5.67 10.85 5.67 10.19 6.61 8.96 6.61 9.63 5.67"/>
            <polygon class="cls-1" points="8.4 5.67 9.63 5.67 8.96 6.61 7.74 6.61 8.4 5.67"/>
            <polygon class="cls-61" points="7.18 5.67 8.4 5.67 7.74 6.61 6.51 6.61 7.18 5.67"/>
            <polygon class="cls-1" points="5.95 5.67 7.18 5.67 6.51 6.61 5.29 6.61 5.95 5.67"/>
            <polygon class="cls-1" points="4.73 5.67 5.95 5.67 5.29 6.61 4.06 6.61 4.73 5.67"/>
            <polygon class="cls-38" points="3.5 5.67 4.73 5.67 4.06 6.61 2.84 6.61 3.5 5.67"/>
            <polygon class="cls-1" points="2.28 5.67 3.5 5.67 2.84 6.61 1.61 6.61 2.28 5.67"/>
            <polygon class="cls-1" points="1.05 5.67 2.28 5.67 1.61 6.61 .39 6.61 1.05 5.67"/>
            <polygon class="cls-6" points="0 5.67 1.05 5.67 .39 6.61 0 6.61 0 5.67"/>
            <polygon class="cls-54" points="25 7.56 24.23 7.56 24.89 6.61 25 6.61 25 7.56"/>
            <polygon class="cls-11" points="23.66 6.61 24.89 6.61 24.23 7.56 23 7.56 23.66 6.61"/>
            <polygon class="cls-37" points="22.44 6.61 23.66 6.61 23 7.56 21.78 7.56 22.44 6.61"/>
            <polygon class="cls-54" points="21.21 6.61 22.44 6.61 21.78 7.56 20.55 7.56 21.21 6.61"/>
            <polygon class="cls-41" points="19.99 6.61 21.21 6.61 20.55 7.56 19.33 7.56 19.99 6.61"/>
            <polygon class="cls-42" points="18.76 6.61 19.99 6.61 19.33 7.56 18.1 7.56 18.76 6.61"/>
            <polygon class="cls-45" points="17.54 6.61 18.76 6.61 18.1 7.56 16.88 7.56 17.54 6.61"/>
            <polygon class="cls-30" points="16.31 6.61 17.54 6.61 16.88 7.56 15.65 7.56 16.31 6.61"/>
            <polygon class="cls-14" points="15.09 6.61 16.31 6.61 15.65 7.56 14.43 7.56 15.09 6.61"/>
            <polygon class="cls-15" points="13.86 6.61 15.09 6.61 14.43 7.56 13.2 7.56 13.86 6.61"/>
            <polygon class="cls-40" points="12.64 6.61 13.86 6.61 13.2 7.56 11.98 7.56 12.64 6.61"/>
            <polygon class="cls-5" points="11.41 6.61 12.64 6.61 11.98 7.56 10.75 7.56 11.41 6.61"/>
            <polygon class="cls-14" points="10.19 6.61 11.41 6.61 10.75 7.56 9.53 7.56 10.19 6.61"/>
            <polygon class="cls-6" points="8.96 6.61 10.19 6.61 9.53 7.56 8.3 7.56 8.96 6.61"/>
            <polygon class="cls-1" points="7.74 6.61 8.96 6.61 8.3 7.56 7.08 7.56 7.74 6.61"/>
            <polygon class="cls-1" points="6.51 6.61 7.74 6.61 7.08 7.56 5.85 7.56 6.51 6.61"/>
            <polygon class="cls-1" points="5.29 6.61 6.51 6.61 5.85 7.56 4.63 7.56 5.29 6.61"/>
            <polygon class="cls-1" points="4.06 6.61 5.29 6.61 4.63 7.56 3.4 7.56 4.06 6.61"/>
            <polygon class="cls-1" points="2.84 6.61 4.06 6.61 3.4 7.56 2.18 7.56 2.84 6.61"/>
            <polygon class="cls-1" points="1.61 6.61 2.84 6.61 2.18 7.56 .95 7.56 1.61 6.61"/>
            <polygon class="cls-1" points=".95 7.56 0 7.56 0 7.17 .39 6.61 1.61 6.61 .95 7.56"/>
            <polygon class="cls-1" points="0 7.17 0 6.61 .39 6.61 0 7.17"/>
            <polygon class="cls-26" points="25 8.5 24.79 8.5 25 8.2 25 8.5"/>
            <polygon class="cls-26" points="25 8.2 24.79 8.5 23.56 8.5 24.23 7.56 25 7.56 25 8.2"/>
            <polygon class="cls-56" points="23 7.56 24.23 7.56 23.56 8.5 22.34 8.5 23 7.56"/>
            <polygon class="cls-26" points="21.78 7.56 23 7.56 22.34 8.5 21.11 8.5 21.78 7.56"/>
            <polygon class="cls-57" points="20.55 7.56 21.78 7.56 21.11 8.5 19.89 8.5 20.55 7.56"/>
            <polygon class="cls-56" points="19.33 7.56 20.55 7.56 19.89 8.5 18.66 8.5 19.33 7.56"/>
            <polygon class="cls-42" points="18.1 7.56 19.33 7.56 18.66 8.5 17.44 8.5 18.1 7.56"/>
            <polygon class="cls-42" points="16.88 7.56 18.1 7.56 17.44 8.5 16.21 8.5 16.88 7.56"/>
            <polygon class="cls-22" points="15.65 7.56 16.88 7.56 16.21 8.5 14.99 8.5 15.65 7.56"/>
            <polygon class="cls-41" points="14.43 7.56 15.65 7.56 14.99 8.5 13.76 8.5 14.43 7.56"/>
            <polygon class="cls-47" points="13.2 7.56 14.43 7.56 13.76 8.5 12.54 8.5 13.2 7.56"/>
            <polygon class="cls-8" points="11.98 7.56 13.2 7.56 12.54 8.5 11.31 8.5 11.98 7.56"/>
            <polygon class="cls-53" points="10.75 7.56 11.98 7.56 11.31 8.5 10.09 8.5 10.75 7.56"/>
            <polygon class="cls-1" points="9.53 7.56 10.75 7.56 10.09 8.5 8.86 8.5 9.53 7.56"/>
            <polygon class="cls-28" points="8.3 7.56 9.53 7.56 8.86 8.5 7.64 8.5 8.3 7.56"/>
            <polygon class="cls-1" points="7.08 7.56 8.3 7.56 7.64 8.5 6.41 8.5 7.08 7.56"/>
            <polygon class="cls-9" points="5.85 7.56 7.08 7.56 6.41 8.5 5.19 8.5 5.85 7.56"/>
            <polygon class="cls-1" points="4.63 7.56 5.85 7.56 5.19 8.5 3.96 8.5 4.63 7.56"/>
            <polygon class="cls-1" points="3.4 7.56 4.63 7.56 3.96 8.5 2.74 8.5 3.4 7.56"/>
            <polygon class="cls-1" points="2.18 7.56 3.4 7.56 2.74 8.5 1.51 8.5 2.18 7.56"/>
            <polygon class="cls-1" points=".95 7.56 2.18 7.56 1.51 8.5 .29 8.5 .95 7.56"/>
            <polygon class="cls-1" points="0 7.56 .95 7.56 .29 8.5 0 8.5 0 7.56"/>
            <polygon class="cls-57" points="25 9.44 24.13 9.44 24.79 8.5 25 8.5 25 9.44"/>
            <polygon class="cls-56" points="23.56 8.5 24.79 8.5 24.13 9.44 22.9 9.44 23.56 8.5"/>
            <polygon class="cls-29" points="22.34 8.5 23.56 8.5 22.9 9.44 21.68 9.44 22.34 8.5"/>
            <polygon class="cls-3" points="21.11 8.5 22.34 8.5 21.68 9.44 20.45 9.44 21.11 8.5"/>
            <polygon class="cls-45" points="19.89 8.5 21.11 8.5 20.45 9.44 19.23 9.44 19.89 8.5"/>
            <polygon class="cls-14" points="18.66 8.5 19.89 8.5 19.23 9.44 18 9.44 18.66 8.5"/>
            <polygon class="cls-4" points="17.44 8.5 18.66 8.5 18 9.44 16.78 9.44 17.44 8.5"/>
            <polygon class="cls-31" points="16.21 8.5 17.44 8.5 16.78 9.44 15.55 9.44 16.21 8.5"/>
            <polygon class="cls-17" points="14.99 8.5 16.21 8.5 15.55 9.44 14.33 9.44 14.99 8.5"/>
            <polygon class="cls-12" points="13.76 8.5 14.99 8.5 14.33 9.44 13.1 9.44 13.76 8.5"/>
            <polygon class="cls-4" points="12.54 8.5 13.76 8.5 13.1 9.44 11.88 9.44 12.54 8.5"/>
            <polygon class="cls-8" points="11.31 8.5 12.54 8.5 11.88 9.44 10.65 9.44 11.31 8.5"/>
            <polygon class="cls-61" points="10.09 8.5 11.31 8.5 10.65 9.44 9.43 9.44 10.09 8.5"/>
            <polygon class="cls-6" points="8.86 8.5 10.09 8.5 9.43 9.44 8.2 9.44 8.86 8.5"/>
            <polygon class="cls-17" points="7.64 8.5 8.86 8.5 8.2 9.44 6.98 9.44 7.64 8.5"/>
            <polygon class="cls-1" points="6.41 8.5 7.64 8.5 6.98 9.44 5.75 9.44 6.41 8.5"/>
            <polygon class="cls-1" points="5.19 8.5 6.41 8.5 5.75 9.44 4.53 9.44 5.19 8.5"/>
            <polygon class="cls-1" points="3.96 8.5 5.19 8.5 4.53 9.44 3.3 9.44 3.96 8.5"/>
            <polygon class="cls-1" points="2.74 8.5 3.96 8.5 3.3 9.44 2.08 9.44 2.74 8.5"/>
            <polygon class="cls-1" points="1.51 8.5 2.74 8.5 2.08 9.44 .85 9.44 1.51 8.5"/>
            <polygon class="cls-1" points=".85 9.44 0 9.44 0 8.91 .29 8.5 1.51 8.5 .85 9.44"/>
            <polygon class="cls-1" points="0 8.91 0 8.5 .29 8.5 0 8.91"/>
            <polygon class="cls-11" points="25 10.39 24.69 10.39 25 9.95 25 10.39"/>
            <polygon class="cls-3" points="25 9.95 24.69 10.39 23.46 10.39 24.13 9.44 25 9.44 25 9.95"/>
            <polygon class="cls-16" points="22.9 9.44 24.13 9.44 23.46 10.39 22.24 10.39 22.9 9.44"/>
            <polygon class="cls-20" points="21.68 9.44 22.9 9.44 22.24 10.39 21.01 10.39 21.68 9.44"/>
            <polygon class="cls-26" points="20.45 9.44 21.68 9.44 21.01 10.39 19.79 10.39 20.45 9.44"/>
            <polygon class="cls-56" points="19.23 9.44 20.45 9.44 19.79 10.39 18.57 10.39 19.23 9.44"/>
            <polygon class="cls-41" points="18 9.44 19.23 9.44 18.57 10.39 17.34 10.39 18 9.44"/>
            <polygon class="cls-59" points="16.78 9.44 18 9.44 17.34 10.39 16.12 10.39 16.78 9.44"/>
            <polygon class="cls-17" points="15.55 9.44 16.78 9.44 16.12 10.39 14.89 10.39 15.55 9.44"/>
            <polygon class="cls-23" points="14.33 9.44 15.55 9.44 14.89 10.39 13.67 10.39 14.33 9.44"/>
            <polygon class="cls-12" points="13.1 9.44 14.33 9.44 13.67 10.39 12.44 10.39 13.1 9.44"/>
            <polygon class="cls-14" points="11.88 9.44 13.1 9.44 12.44 10.39 11.22 10.39 11.88 9.44"/>
            <polygon class="cls-27" points="10.65 9.44 11.88 9.44 11.22 10.39 9.99 10.39 10.65 9.44"/>
            <polygon class="cls-48" points="9.43 9.44 10.65 9.44 9.99 10.39 8.77 10.39 9.43 9.44"/>
            <polygon class="cls-61" points="8.2 9.44 9.43 9.44 8.77 10.39 7.54 10.39 8.2 9.44"/>
            <polygon class="cls-61" points="6.98 9.44 8.2 9.44 7.54 10.39 6.32 10.39 6.98 9.44"/>
            <polygon class="cls-1" points="5.75 9.44 6.98 9.44 6.32 10.39 5.09 10.39 5.75 9.44"/>
            <polygon class="cls-1" points="4.53 9.44 5.75 9.44 5.09 10.39 3.87 10.39 4.53 9.44"/>
            <polygon class="cls-1" points="3.3 9.44 4.53 9.44 3.87 10.39 2.64 10.39 3.3 9.44"/>
            <polygon class="cls-1" points="2.08 9.44 3.3 9.44 2.64 10.39 1.42 10.39 2.08 9.44"/>
            <polygon class="cls-1" points=".85 9.44 2.08 9.44 1.42 10.39 .19 10.39 .85 9.44"/>
            <polygon class="cls-1" points="0 9.44 .85 9.44 .19 10.39 0 10.39 0 9.44"/>
            <polygon class="cls-26" points="25 11.33 24.03 11.33 24.69 10.39 25 10.39 25 11.33"/>
            <polygon class="cls-3" points="23.46 10.39 24.69 10.39 24.03 11.33 22.8 11.33 23.46 10.39"/>
            <polygon class="cls-56" points="22.24 10.39 23.46 10.39 22.8 11.33 21.58 11.33 22.24 10.39"/>
            <polygon class="cls-57" points="21.01 10.39 22.24 10.39 21.58 11.33 20.35 11.33 21.01 10.39"/>
            <polygon class="cls-57" points="19.79 10.39 21.01 10.39 20.35 11.33 19.13 11.33 19.79 10.39"/>
            <polygon class="cls-59" points="18.57 10.39 19.79 10.39 19.13 11.33 17.9 11.33 18.57 10.39"/>
            <polygon class="cls-33" points="17.34 10.39 18.57 10.39 17.9 11.33 16.68 11.33 17.34 10.39"/>
            <polygon class="cls-48" points="16.12 10.39 17.34 10.39 16.68 11.33 15.45 11.33 16.12 10.39"/>
            <polygon class="cls-23" points="14.89 10.39 16.12 10.39 15.45 11.33 14.23 11.33 14.89 10.39"/>
            <polygon class="cls-22" points="13.67 10.39 14.89 10.39 14.23 11.33 13 11.33 13.67 10.39"/>
            <polygon class="cls-36" points="12.44 10.39 13.67 10.39 13 11.33 11.78 11.33 12.44 10.39"/>
            <polygon class="cls-50" points="11.22 10.39 12.44 10.39 11.78 11.33 10.55 11.33 11.22 10.39"/>
            <polygon class="cls-36" points="9.99 10.39 11.22 10.39 10.55 11.33 9.33 11.33 9.99 10.39"/>
            <polygon class="cls-36" points="8.77 10.39 9.99 10.39 9.33 11.33 8.1 11.33 8.77 10.39"/>
            <polygon class="cls-1" points="7.54 10.39 8.77 10.39 8.1 11.33 6.88 11.33 7.54 10.39"/>
            <polygon class="cls-5" points="6.32 10.39 7.54 10.39 6.88 11.33 5.65 11.33 6.32 10.39"/>
            <polygon class="cls-1" points="5.09 10.39 6.32 10.39 5.65 11.33 4.43 11.33 5.09 10.39"/>
            <polygon class="cls-1" points="3.87 10.39 5.09 10.39 4.43 11.33 3.2 11.33 3.87 10.39"/>
            <polygon class="cls-1" points="2.64 10.39 3.87 10.39 3.2 11.33 1.98 11.33 2.64 10.39"/>
            <polygon class="cls-1" points="1.42 10.39 2.64 10.39 1.98 11.33 .75 11.33 1.42 10.39"/>
            <polygon class="cls-1" points=".75 11.33 0 11.33 0 10.66 .19 10.39 1.42 10.39 .75 11.33"/>
            <polygon class="cls-1" points="0 10.66 0 10.39 .19 10.39 0 10.66"/>
            <polygon class="cls-52" points="25 12.28 24.59 12.28 25 11.69 25 12.28"/>
            <polygon class="cls-26" points="25 11.69 24.59 12.28 23.37 12.28 24.03 11.33 25 11.33 25 11.69"/>
            <polygon class="cls-52" points="22.8 11.33 24.03 11.33 23.37 12.28 22.14 12.28 22.8 11.33"/>
            <polygon class="cls-41" points="21.58 11.33 22.8 11.33 22.14 12.28 20.92 12.28 21.58 11.33"/>
            <polygon class="cls-16" points="20.35 11.33 21.58 11.33 20.92 12.28 19.69 12.28 20.35 11.33"/>
            <polygon class="cls-56" points="19.13 11.33 20.35 11.33 19.69 12.28 18.47 12.28 19.13 11.33"/>
            <polygon class="cls-56" points="17.9 11.33 19.13 11.33 18.47 12.28 17.24 12.28 17.9 11.33"/>
            <polygon class="cls-4" points="16.68 11.33 17.9 11.33 17.24 12.28 16.02 12.28 16.68 11.33"/>
            <polygon class="cls-1" points="15.45 11.33 16.68 11.33 16.02 12.28 14.79 12.28 15.45 11.33"/>
            <polygon class="cls-14" points="14.23 11.33 15.45 11.33 14.79 12.28 13.57 12.28 14.23 11.33"/>
            <polygon class="cls-40" points="13 11.33 14.23 11.33 13.57 12.28 12.34 12.28 13 11.33"/>
            <polygon class="cls-22" points="11.78 11.33 13 11.33 12.34 12.28 11.12 12.28 11.78 11.33"/>
            <polygon class="cls-61" points="10.55 11.33 11.78 11.33 11.12 12.28 9.89 12.28 10.55 11.33"/>
            <polygon class="cls-51" points="9.33 11.33 10.55 11.33 9.89 12.28 8.67 12.28 9.33 11.33"/>
            <polygon class="cls-50" points="8.1 11.33 9.33 11.33 8.67 12.28 7.44 12.28 8.1 11.33"/>
            <polygon class="cls-6" points="6.88 11.33 8.1 11.33 7.44 12.28 6.22 12.28 6.88 11.33"/>
            <polygon class="cls-1" points="5.65 11.33 6.88 11.33 6.22 12.28 4.99 12.28 5.65 11.33"/>
            <polygon class="cls-1" points="4.43 11.33 5.65 11.33 4.99 12.28 3.77 12.28 4.43 11.33"/>
            <polygon class="cls-1" points="3.2 11.33 4.43 11.33 3.77 12.28 2.54 12.28 3.2 11.33"/>
            <polygon class="cls-1" points="1.98 11.33 3.2 11.33 2.54 12.28 1.32 12.28 1.98 11.33"/>
            <polygon class="cls-1" points=".75 11.33 1.98 11.33 1.32 12.28 .09 12.28 .75 11.33"/>
            <polygon class="cls-1" points="0 11.33 .75 11.33 .09 12.28 0 12.28 0 11.33"/>
            <polygon class="cls-3" points="25 13.22 23.93 13.22 24.59 12.28 25 12.28 25 13.22"/>
            <polygon class="cls-29" points="23.37 12.28 24.59 12.28 23.93 13.22 22.7 13.22 23.37 12.28"/>
            <polygon class="cls-29" points="22.14 12.28 23.37 12.28 22.7 13.22 21.48 13.22 22.14 12.28"/>
            <polygon class="cls-45" points="20.92 12.28 22.14 12.28 21.48 13.22 20.25 13.22 20.92 12.28"/>
            <polygon class="cls-12" points="19.69 12.28 20.92 12.28 20.25 13.22 19.03 13.22 19.69 12.28"/>
            <polygon class="cls-31" points="18.47 12.28 19.69 12.28 19.03 13.22 17.8 13.22 18.47 12.28"/>
            <polygon class="cls-43" points="17.24 12.28 18.47 12.28 17.8 13.22 16.58 13.22 17.24 12.28"/>
            <polygon class="cls-43" points="16.02 12.28 17.24 12.28 16.58 13.22 15.35 13.22 16.02 12.28"/>
            <polygon class="cls-23" points="14.79 12.28 16.02 12.28 15.35 13.22 14.13 13.22 14.79 12.28"/>
            <polygon class="cls-53" points="13.57 12.28 14.79 12.28 14.13 13.22 12.9 13.22 13.57 12.28"/>
            <polygon class="cls-34" points="12.34 12.28 13.57 12.28 12.9 13.22 11.68 13.22 12.34 12.28"/>
            <polygon class="cls-38" points="11.12 12.28 12.34 12.28 11.68 13.22 10.45 13.22 11.12 12.28"/>
            <polygon class="cls-9" points="9.89 12.28 11.12 12.28 10.45 13.22 9.23 13.22 9.89 12.28"/>
            <polygon class="cls-27" points="8.67 12.28 9.89 12.28 9.23 13.22 8 13.22 8.67 12.28"/>
            <polygon class="cls-48" points="7.44 12.28 8.67 12.28 8 13.22 6.78 13.22 7.44 12.28"/>
            <polygon class="cls-13" points="6.22 12.28 7.44 12.28 6.78 13.22 5.55 13.22 6.22 12.28"/>
            <polygon class="cls-1" points="4.99 12.28 6.22 12.28 5.55 13.22 4.33 13.22 4.99 12.28"/>
            <polygon class="cls-1" points="3.77 12.28 4.99 12.28 4.33 13.22 3.1 13.22 3.77 12.28"/>
            <polygon class="cls-1" points="2.54 12.28 3.77 12.28 3.1 13.22 1.88 13.22 2.54 12.28"/>
            <polygon class="cls-1" points="1.32 12.28 2.54 12.28 1.88 13.22 .65 13.22 1.32 12.28"/>
            <polygon class="cls-1" points=".65 13.22 0 13.22 0 12.41 .09 12.28 1.32 12.28 .65 13.22"/>
            <polygon class="cls-1" points="0 12.41 0 12.28 .09 12.28 0 12.41"/>
            <polygon class="cls-29" points="25 14.17 24.49 14.17 25 13.44 25 14.17"/>
            <polygon class="cls-52" points="25 13.44 24.49 14.17 23.27 14.17 23.93 13.22 25 13.22 25 13.44"/>
            <polygon class="cls-29" points="22.7 13.22 23.93 13.22 23.27 14.17 22.04 14.17 22.7 13.22"/>
            <polygon class="cls-18" points="21.48 13.22 22.7 13.22 22.04 14.17 20.82 14.17 21.48 13.22"/>
            <polygon class="cls-57" points="20.25 13.22 21.48 13.22 20.82 14.17 19.59 14.17 20.25 13.22"/>
            <polygon class="cls-15" points="19.03 13.22 20.25 13.22 19.59 14.17 18.37 14.17 19.03 13.22"/>
            <polygon class="cls-14" points="17.8 13.22 19.03 13.22 18.37 14.17 17.14 14.17 17.8 13.22"/>
            <polygon class="cls-5" points="16.58 13.22 17.8 13.22 17.14 14.17 15.92 14.17 16.58 13.22"/>
            <polygon class="cls-5" points="15.35 13.22 16.58 13.22 15.92 14.17 14.69 14.17 15.35 13.22"/>
            <polygon class="cls-51" points="14.13 13.22 15.35 13.22 14.69 14.17 13.47 14.17 14.13 13.22"/>
            <polygon class="cls-1" points="12.9 13.22 14.13 13.22 13.47 14.17 12.24 14.17 12.9 13.22"/>
            <polygon class="cls-43" points="11.68 13.22 12.9 13.22 12.24 14.17 11.02 14.17 11.68 13.22"/>
            <polygon class="cls-1" points="10.45 13.22 11.68 13.22 11.02 14.17 9.79 14.17 10.45 13.22"/>
            <polygon class="cls-1" points="9.23 13.22 10.45 13.22 9.79 14.17 8.57 14.17 9.23 13.22"/>
            <polygon class="cls-1" points="8 13.22 9.23 13.22 8.57 14.17 7.34 14.17 8 13.22"/>
            <polygon class="cls-1" points="6.78 13.22 8 13.22 7.34 14.17 6.12 14.17 6.78 13.22"/>
            <polygon class="cls-1" points="5.55 13.22 6.78 13.22 6.12 14.17 4.89 14.17 5.55 13.22"/>
            <polygon class="cls-1" points="4.33 13.22 5.55 13.22 4.89 14.17 3.67 14.17 4.33 13.22"/>
            <polygon class="cls-1" points="3.1 13.22 4.33 13.22 3.67 14.17 2.44 14.17 3.1 13.22"/>
            <polygon class="cls-1" points="1.88 13.22 3.1 13.22 2.44 14.17 1.22 14.17 1.88 13.22"/>
            <polygon class="cls-1" points="1.22 14.17 0 14.17 0 14.16 .65 13.22 1.88 13.22 1.22 14.17"/>
            <polygon class="cls-1" points="0 14.16 0 13.22 .65 13.22 0 14.16"/>
            <polygon class="cls-12" points="25 15.11 23.83 15.11 24.49 14.17 25 14.17 25 15.11"/>
            <polygon class="cls-3" points="23.27 14.17 24.49 14.17 23.83 15.11 22.61 15.11 23.27 14.17"/>
            <polygon class="cls-26" points="22.04 14.17 23.27 14.17 22.61 15.11 21.38 15.11 22.04 14.17"/>
            <polygon class="cls-55" points="20.82 14.17 22.04 14.17 21.38 15.11 20.16 15.11 20.82 14.17"/>
            <polygon class="cls-3" points="19.59 14.17 20.82 14.17 20.16 15.11 18.93 15.11 19.59 14.17"/>
            <polygon class="cls-57" points="18.37 14.17 19.59 14.17 18.93 15.11 17.71 15.11 18.37 14.17"/>
            <polygon class="cls-17" points="17.14 14.17 18.37 14.17 17.71 15.11 16.48 15.11 17.14 14.17"/>
            <polygon class="cls-46" points="15.92 14.17 17.14 14.17 16.48 15.11 15.26 15.11 15.92 14.17"/>
            <polygon class="cls-60" points="14.69 14.17 15.92 14.17 15.26 15.11 14.03 15.11 14.69 14.17"/>
            <polygon class="cls-34" points="13.47 14.17 14.69 14.17 14.03 15.11 12.81 15.11 13.47 14.17"/>
            <polygon class="cls-1" points="12.24 14.17 13.47 14.17 12.81 15.11 11.58 15.11 12.24 14.17"/>
            <polygon class="cls-1" points="11.02 14.17 12.24 14.17 11.58 15.11 10.36 15.11 11.02 14.17"/>
            <polygon class="cls-1" points="9.79 14.17 11.02 14.17 10.36 15.11 9.13 15.11 9.79 14.17"/>
            <polygon class="cls-1" points="8.57 14.17 9.79 14.17 9.13 15.11 7.91 15.11 8.57 14.17"/>
            <polygon class="cls-1" points="7.34 14.17 8.57 14.17 7.91 15.11 6.68 15.11 7.34 14.17"/>
            <polygon class="cls-1" points="6.12 14.17 7.34 14.17 6.68 15.11 5.46 15.11 6.12 14.17"/>
            <polygon class="cls-1" points="4.89 14.17 6.12 14.17 5.46 15.11 4.23 15.11 4.89 14.17"/>
            <polygon class="cls-1" points="3.67 14.17 4.89 14.17 4.23 15.11 3.01 15.11 3.67 14.17"/>
            <polygon class="cls-1" points="2.44 14.17 3.67 14.17 3.01 15.11 1.78 15.11 2.44 14.17"/>
            <polygon class="cls-1" points="1.22 14.17 2.44 14.17 1.78 15.11 .56 15.11 1.22 14.17"/>
            <polygon class="cls-1" points="0 14.17 1.22 14.17 .56 15.11 0 15.11 0 14.17"/>
            <polygon class="cls-12" points="25 16.06 24.39 16.06 25 15.19 25 16.06"/>
            <polygon class="cls-31" points="25 15.19 24.39 16.06 23.17 16.06 23.83 15.11 25 15.11 25 15.19"/>
            <polygon class="cls-11" points="22.61 15.11 23.83 15.11 23.17 16.06 21.94 16.06 22.61 15.11"/>
            <polygon class="cls-54" points="21.38 15.11 22.61 15.11 21.94 16.06 20.72 16.06 21.38 15.11"/>
            <polygon class="cls-24" points="20.16 15.11 21.38 15.11 20.72 16.06 19.49 16.06 20.16 15.11"/>
            <polygon class="cls-16" points="18.93 15.11 20.16 15.11 19.49 16.06 18.27 16.06 18.93 15.11"/>
            <polygon class="cls-54" points="17.71 15.11 18.93 15.11 18.27 16.06 17.04 16.06 17.71 15.11"/>
            <polygon class="cls-17" points="16.48 15.11 17.71 15.11 17.04 16.06 15.82 16.06 16.48 15.11"/>
            <polygon class="cls-13" points="15.26 15.11 16.48 15.11 15.82 16.06 14.59 16.06 15.26 15.11"/>
            <polygon class="cls-6" points="14.03 15.11 15.26 15.11 14.59 16.06 13.37 16.06 14.03 15.11"/>
            <polygon class="cls-1" points="12.81 15.11 14.03 15.11 13.37 16.06 12.14 16.06 12.81 15.11"/>
            <polygon class="cls-1" points="11.58 15.11 12.81 15.11 12.14 16.06 10.92 16.06 11.58 15.11"/>
            <polygon class="cls-1" points="10.36 15.11 11.58 15.11 10.92 16.06 9.69 16.06 10.36 15.11"/>
            <polygon class="cls-1" points="9.13 15.11 10.36 15.11 9.69 16.06 8.47 16.06 9.13 15.11"/>
            <polygon class="cls-1" points="7.91 15.11 9.13 15.11 8.47 16.06 7.24 16.06 7.91 15.11"/>
            <polygon class="cls-6" points="6.68 15.11 7.91 15.11 7.24 16.06 6.02 16.06 6.68 15.11"/>
            <polygon class="cls-13" points="5.46 15.11 6.68 15.11 6.02 16.06 4.79 16.06 5.46 15.11"/>
            <polygon class="cls-1" points="4.23 15.11 5.46 15.11 4.79 16.06 3.57 16.06 4.23 15.11"/>
            <polygon class="cls-1" points="3.01 15.11 4.23 15.11 3.57 16.06 2.34 16.06 3.01 15.11"/>
            <polygon class="cls-1" points="1.78 15.11 3.01 15.11 2.34 16.06 1.12 16.06 1.78 15.11"/>
            <polygon class="cls-1" points="1.12 16.06 0 16.06 0 15.9 .56 15.11 1.78 15.11 1.12 16.06"/>
            <polygon class="cls-1" points="0 15.9 0 15.11 .56 15.11 0 15.9"/>
            <polygon class="cls-14" points="25 16.94 24.96 17 23.73 17 24.39 16.06 25 16.06 25 16.94"/>
            <polygon class="cls-15" points="23.17 16.06 24.39 16.06 23.73 17 22.51 17 23.17 16.06"/>
            <polygon class="cls-56" points="21.94 16.06 23.17 16.06 22.51 17 21.28 17 21.94 16.06"/>
            <polygon class="cls-29" points="20.72 16.06 21.94 16.06 21.28 17 20.06 17 20.72 16.06"/>
            <polygon class="cls-41" points="19.49 16.06 20.72 16.06 20.06 17 18.83 17 19.49 16.06"/>
            <polygon class="cls-52" points="18.27 16.06 19.49 16.06 18.83 17 17.61 17 18.27 16.06"/>
            <polygon class="cls-37" points="17.04 16.06 18.27 16.06 17.61 17 16.38 17 17.04 16.06"/>
            <polygon class="cls-51" points="15.82 16.06 17.04 16.06 16.38 17 15.16 17 15.82 16.06"/>
            <polygon class="cls-1" points="14.59 16.06 15.82 16.06 15.16 17 13.93 17 14.59 16.06"/>
            <polygon class="cls-1" points="13.37 16.06 14.59 16.06 13.93 17 12.71 17 13.37 16.06"/>
            <polygon class="cls-1" points="12.14 16.06 13.37 16.06 12.71 17 11.48 17 12.14 16.06"/>
            <polygon class="cls-1" points="10.92 16.06 12.14 16.06 11.48 17 10.26 17 10.92 16.06"/>
            <polygon class="cls-1" points="9.69 16.06 10.92 16.06 10.26 17 9.03 17 9.69 16.06"/>
            <polygon class="cls-1" points="8.47 16.06 9.69 16.06 9.03 17 7.81 17 8.47 16.06"/>
            <polygon class="cls-1" points="7.24 16.06 8.47 16.06 7.81 17 6.58 17 7.24 16.06"/>
            <polygon class="cls-60" points="6.02 16.06 7.24 16.06 6.58 17 5.36 17 6.02 16.06"/>
            <polygon class="cls-60" points="4.79 16.06 6.02 16.06 5.36 17 4.13 17 4.79 16.06"/>
            <polygon class="cls-1" points="3.57 16.06 4.79 16.06 4.13 17 2.91 17 3.57 16.06"/>
            <polygon class="cls-1" points="2.34 16.06 3.57 16.06 2.91 17 1.68 17 2.34 16.06"/>
            <polygon class="cls-1" points="1.12 16.06 2.34 16.06 1.68 17 .46 17 1.12 16.06"/>
            <polygon class="cls-1" points="0 16.06 1.12 16.06 .46 17 0 17 0 16.06"/>
          </g>
          <g class="cls-32">
            <polygon class="cls-37" points="25 17 24.62 17 23.96 16.06 25 16.06 25 17"/>
            <polygon class="cls-54" points="23.4 17 24.62 17 23.96 16.06 22.73 16.06 23.4 17"/>
            <polygon class="cls-45" points="22.17 17 23.4 17 22.73 16.06 21.51 16.06 22.17 17"/>
            <polygon class="cls-20" points="20.95 17 22.17 17 21.51 16.06 20.28 16.06 20.95 17"/>
            <polygon class="cls-30" points="19.72 17 20.95 17 20.28 16.06 19.06 16.06 19.72 17"/>
            <polygon class="cls-23" points="18.5 17 19.72 17 19.06 16.06 17.83 16.06 18.5 17"/>
            <polygon class="cls-40" points="17.27 17 18.5 17 17.83 16.06 16.61 16.06 17.27 17"/>
            <polygon class="cls-46" points="16.05 17 17.27 17 16.61 16.06 15.39 16.06 16.05 17"/>
            <polygon class="cls-15" points="14.82 17 16.05 17 15.39 16.06 14.16 16.06 14.82 17"/>
            <polygon class="cls-58" points="13.6 17 14.82 17 14.16 16.06 12.94 16.06 13.6 17"/>
            <polygon class="cls-31" points="12.37 17 13.6 17 12.94 16.06 11.71 16.06 12.37 17"/>
            <polygon class="cls-41" points="11.15 17 12.37 17 11.71 16.06 10.49 16.06 11.15 17"/>
            <polygon class="cls-59" points="9.92 17 11.15 17 10.49 16.06 9.26 16.06 9.92 17"/>
            <polygon class="cls-56" points="8.7 17 9.92 17 9.26 16.06 8.04 16.06 8.7 17"/>
            <polygon class="cls-52" points="7.47 17 8.7 17 8.04 16.06 6.81 16.06 7.47 17"/>
            <polygon class="cls-26" points="6.25 17 7.47 17 6.81 16.06 5.59 16.06 6.25 17"/>
            <polygon class="cls-54" points="5.02 17 6.25 17 5.59 16.06 4.36 16.06 5.02 17"/>
            <polygon class="cls-25" points="3.8 17 5.02 17 4.36 16.06 3.14 16.06 3.8 17"/>
            <polygon class="cls-18" points="2.57 17 3.8 17 3.14 16.06 1.91 16.06 2.57 17"/>
            <polygon class="cls-37" points="1.35 17 2.57 17 1.91 16.06 .69 16.06 1.35 17"/>
            <polygon class="cls-62" points=".12 17 0 16.83 0 16.06 .69 16.06 1.35 17 .12 17"/>
            <polygon class="cls-44" points="25 15.79 24.52 15.11 25 15.11 25 15.79"/>
            <polygon class="cls-55" points="25 16.06 23.96 16.06 23.3 15.11 24.52 15.11 25 15.79 25 16.06"/>
            <polygon class="cls-55" points="22.73 16.06 23.96 16.06 23.3 15.11 22.07 15.11 22.73 16.06"/>
            <polygon class="cls-29" points="21.51 16.06 22.73 16.06 22.07 15.11 20.85 15.11 21.51 16.06"/>
            <polygon class="cls-16" points="20.28 16.06 21.51 16.06 20.85 15.11 19.62 15.11 20.28 16.06"/>
            <polygon class="cls-12" points="19.06 16.06 20.28 16.06 19.62 15.11 18.4 15.11 19.06 16.06"/>
            <polygon class="cls-46" points="17.83 16.06 19.06 16.06 18.4 15.11 17.17 15.11 17.83 16.06"/>
            <polygon class="cls-50" points="16.61 16.06 17.83 16.06 17.17 15.11 15.95 15.11 16.61 16.06"/>
            <polygon class="cls-21" points="15.39 16.06 16.61 16.06 15.95 15.11 14.72 15.11 15.39 16.06"/>
            <polygon class="cls-13" points="14.16 16.06 15.39 16.06 14.72 15.11 13.5 15.11 14.16 16.06"/>
            <polygon class="cls-30" points="12.94 16.06 14.16 16.06 13.5 15.11 12.27 15.11 12.94 16.06"/>
            <polygon class="cls-59" points="11.71 16.06 12.94 16.06 12.27 15.11 11.05 15.11 11.71 16.06"/>
            <polygon class="cls-19" points="10.49 16.06 11.71 16.06 11.05 15.11 9.82 15.11 10.49 16.06"/>
            <polygon class="cls-43" points="9.26 16.06 10.49 16.06 9.82 15.11 8.6 15.11 9.26 16.06"/>
            <polygon class="cls-12" points="8.04 16.06 9.26 16.06 8.6 15.11 7.37 15.11 8.04 16.06"/>
            <polygon class="cls-30" points="6.81 16.06 8.04 16.06 7.37 15.11 6.15 15.11 6.81 16.06"/>
            <polygon class="cls-16" points="5.59 16.06 6.81 16.06 6.15 15.11 4.92 15.11 5.59 16.06"/>
            <polygon class="cls-21" points="4.36 16.06 5.59 16.06 4.92 15.11 3.7 15.11 4.36 16.06"/>
            <polygon class="cls-31" points="3.14 16.06 4.36 16.06 3.7 15.11 2.47 15.11 3.14 16.06"/>
            <polygon class="cls-47" points="1.91 16.06 3.14 16.06 2.47 15.11 1.25 15.11 1.91 16.06"/>
            <polygon class="cls-24" points=".69 16.06 1.91 16.06 1.25 15.11 .02 15.11 .69 16.06"/>
            <polygon class="cls-55" points="0 16.06 0 15.11 .02 15.11 .69 16.06 0 16.06"/>
            <polygon class="cls-44" points="25 15.11 24.52 15.11 23.86 14.17 25 14.17 25 15.11"/>
            <polygon class="cls-25" points="23.3 15.11 24.52 15.11 23.86 14.17 22.64 14.17 23.3 15.11"/>
            <polygon class="cls-54" points="22.07 15.11 23.3 15.11 22.64 14.17 21.41 14.17 22.07 15.11"/>
            <polygon class="cls-29" points="20.85 15.11 22.07 15.11 21.41 14.17 20.19 14.17 20.85 15.11"/>
            <polygon class="cls-54" points="19.62 15.11 20.85 15.11 20.19 14.17 18.96 14.17 19.62 15.11"/>
            <polygon class="cls-45" points="18.4 15.11 19.62 15.11 18.96 14.17 17.74 14.17 18.4 15.11"/>
            <polygon class="cls-30" points="17.17 15.11 18.4 15.11 17.74 14.17 16.51 14.17 17.17 15.11"/>
            <polygon class="cls-13" points="15.95 15.11 17.17 15.11 16.51 14.17 15.29 14.17 15.95 15.11"/>
            <polygon class="cls-21" points="14.72 15.11 15.95 15.11 15.29 14.17 14.06 14.17 14.72 15.11"/>
            <polygon class="cls-1" points="13.5 15.11 14.72 15.11 14.06 14.17 12.84 14.17 13.5 15.11"/>
            <polygon class="cls-43" points="12.27 15.11 13.5 15.11 12.84 14.17 11.61 14.17 12.27 15.11"/>
            <polygon class="cls-1" points="11.05 15.11 12.27 15.11 11.61 14.17 10.39 14.17 11.05 15.11"/>
            <polygon class="cls-28" points="9.82 15.11 11.05 15.11 10.39 14.17 9.16 14.17 9.82 15.11"/>
            <polygon class="cls-38" points="8.6 15.11 9.82 15.11 9.16 14.17 7.94 14.17 8.6 15.11"/>
            <polygon class="cls-47" points="7.37 15.11 8.6 15.11 7.94 14.17 6.71 14.17 7.37 15.11"/>
            <polygon class="cls-42" points="6.15 15.11 7.37 15.11 6.71 14.17 5.49 14.17 6.15 15.11"/>
            <polygon class="cls-42" points="4.92 15.11 6.15 15.11 5.49 14.17 4.26 14.17 4.92 15.11"/>
            <polygon class="cls-41" points="3.7 15.11 4.92 15.11 4.26 14.17 3.04 14.17 3.7 15.11"/>
            <polygon class="cls-20" points="2.47 15.11 3.7 15.11 3.04 14.17 1.81 14.17 2.47 15.11"/>
            <polygon class="cls-33" points="1.25 15.11 2.47 15.11 1.81 14.17 .59 14.17 1.25 15.11"/>
            <polygon class="cls-11" points=".02 15.11 0 15.08 0 14.17 .59 14.17 1.25 15.11 .02 15.11"/>
            <polygon class="cls-35" points="25 14.04 24.42 13.22 25 13.22 25 14.04"/>
            <polygon class="cls-25" points="25 14.17 23.86 14.17 23.2 13.22 24.42 13.22 25 14.04 25 14.17"/>
            <polygon class="cls-18" points="22.64 14.17 23.86 14.17 23.2 13.22 21.97 13.22 22.64 14.17"/>
            <polygon class="cls-24" points="21.41 14.17 22.64 14.17 21.97 13.22 20.75 13.22 21.41 14.17"/>
            <polygon class="cls-11" points="20.19 14.17 21.41 14.17 20.75 13.22 19.52 13.22 20.19 14.17"/>
            <polygon class="cls-41" points="18.96 14.17 20.19 14.17 19.52 13.22 18.3 13.22 18.96 14.17"/>
            <polygon class="cls-4" points="17.74 14.17 18.96 14.17 18.3 13.22 17.07 13.22 17.74 14.17"/>
            <polygon class="cls-30" points="16.51 14.17 17.74 14.17 17.07 13.22 15.85 13.22 16.51 14.17"/>
            <polygon class="cls-53" points="15.29 14.17 16.51 14.17 15.85 13.22 14.62 13.22 15.29 14.17"/>
            <polygon class="cls-8" points="14.06 14.17 15.29 14.17 14.62 13.22 13.4 13.22 14.06 14.17"/>
            <polygon class="cls-40" points="12.84 14.17 14.06 14.17 13.4 13.22 12.17 13.22 12.84 14.17"/>
            <polygon class="cls-13" points="11.61 14.17 12.84 14.17 12.17 13.22 10.95 13.22 11.61 14.17"/>
            <polygon class="cls-38" points="10.39 14.17 11.61 14.17 10.95 13.22 9.72 13.22 10.39 14.17"/>
            <polygon class="cls-1" points="9.16 14.17 10.39 14.17 9.72 13.22 8.5 13.22 9.16 14.17"/>
            <polygon class="cls-61" points="7.94 14.17 9.16 14.17 8.5 13.22 7.27 13.22 7.94 14.17"/>
            <polygon class="cls-27" points="6.71 14.17 7.94 14.17 7.27 13.22 6.05 13.22 6.71 14.17"/>
            <polygon class="cls-57" points="5.49 14.17 6.71 14.17 6.05 13.22 4.82 13.22 5.49 14.17"/>
            <polygon class="cls-21" points="4.26 14.17 5.49 14.17 4.82 13.22 3.6 13.22 4.26 14.17"/>
            <polygon class="cls-61" points="3.04 14.17 4.26 14.17 3.6 13.22 2.37 13.22 3.04 14.17"/>
            <polygon class="cls-39" points="1.81 14.17 3.04 14.17 2.37 13.22 1.15 13.22 1.81 14.17"/>
            <polygon class="cls-41" points=".59 14.17 0 13.33 0 13.22 1.15 13.22 1.81 14.17 .59 14.17"/>
            <polygon class="cls-26" points="0 14.17 0 13.33 .59 14.17 0 14.17"/>
            <polygon class="cls-35" points="25 13.22 24.42 13.22 23.76 12.28 24.99 12.28 25 12.3 25 13.22"/>
            <polygon class="cls-44" points="23.2 13.22 24.42 13.22 23.76 12.28 22.54 12.28 23.2 13.22"/>
            <polygon class="cls-44" points="21.97 13.22 23.2 13.22 22.54 12.28 21.31 12.28 21.97 13.22"/>
            <polygon class="cls-54" points="20.75 13.22 21.97 13.22 21.31 12.28 20.09 12.28 20.75 13.22"/>
            <polygon class="cls-45" points="19.52 13.22 20.75 13.22 20.09 12.28 18.86 12.28 19.52 13.22"/>
            <polygon class="cls-46" points="18.3 13.22 19.52 13.22 18.86 12.28 17.64 12.28 18.3 13.22"/>
            <polygon class="cls-39" points="17.07 13.22 18.3 13.22 17.64 12.28 16.41 12.28 17.07 13.22"/>
            <polygon class="cls-59" points="15.85 13.22 17.07 13.22 16.41 12.28 15.19 12.28 15.85 13.22"/>
            <polygon class="cls-14" points="14.62 13.22 15.85 13.22 15.19 12.28 13.96 12.28 14.62 13.22"/>
            <polygon class="cls-46" points="13.4 13.22 14.62 13.22 13.96 12.28 12.74 12.28 13.4 13.22"/>
            <polygon class="cls-40" points="12.17 13.22 13.4 13.22 12.74 12.28 11.51 12.28 12.17 13.22"/>
            <polygon class="cls-8" points="10.95 13.22 12.17 13.22 11.51 12.28 10.29 12.28 10.95 13.22"/>
            <polygon class="cls-48" points="9.72 13.22 10.95 13.22 10.29 12.28 9.06 12.28 9.72 13.22"/>
            <polygon class="cls-9" points="8.5 13.22 9.72 13.22 9.06 12.28 7.84 12.28 8.5 13.22"/>
            <polygon class="cls-1" points="7.27 13.22 8.5 13.22 7.84 12.28 6.61 12.28 7.27 13.22"/>
            <polygon class="cls-21" points="6.05 13.22 7.27 13.22 6.61 12.28 5.39 12.28 6.05 13.22"/>
            <polygon class="cls-15" points="4.82 13.22 6.05 13.22 5.39 12.28 4.16 12.28 4.82 13.22"/>
            <polygon class="cls-36" points="3.6 13.22 4.82 13.22 4.16 12.28 2.94 12.28 3.6 13.22"/>
            <polygon class="cls-28" points="2.37 13.22 3.6 13.22 2.94 12.28 1.71 12.28 2.37 13.22"/>
            <polygon class="cls-1" points="1.15 13.22 2.37 13.22 1.71 12.28 .49 12.28 1.15 13.22"/>
            <polygon class="cls-53" points="0 13.22 0 12.28 .49 12.28 1.15 13.22 0 13.22"/>
            <polygon class="cls-7" points="25 12.28 24.99 12.28 24.32 11.33 25 11.33 25 12.28"/>
            <polygon class="cls-18" points="23.76 12.28 24.99 12.28 24.32 11.33 23.1 11.33 23.76 12.28"/>
            <polygon class="cls-24" points="22.54 12.28 23.76 12.28 23.1 11.33 21.87 11.33 22.54 12.28"/>
            <polygon class="cls-29" points="21.31 12.28 22.54 12.28 21.87 11.33 20.65 11.33 21.31 12.28"/>
            <polygon class="cls-16" points="20.09 12.28 21.31 12.28 20.65 11.33 19.42 11.33 20.09 12.28"/>
            <polygon class="cls-3" points="18.86 12.28 20.09 12.28 19.42 11.33 18.2 11.33 18.86 12.28"/>
            <polygon class="cls-56" points="17.64 12.28 18.86 12.28 18.2 11.33 16.98 11.33 17.64 12.28"/>
            <polygon class="cls-15" points="16.41 12.28 17.64 12.28 16.98 11.33 15.75 11.33 16.41 12.28"/>
            <polygon class="cls-59" points="15.19 12.28 16.41 12.28 15.75 11.33 14.53 11.33 15.19 12.28"/>
            <polygon class="cls-23" points="13.96 12.28 15.19 12.28 14.53 11.33 13.3 11.33 13.96 12.28"/>
            <polygon class="cls-61" points="12.74 12.28 13.96 12.28 13.3 11.33 12.08 11.33 12.74 12.28"/>
            <polygon class="cls-4" points="11.51 12.28 12.74 12.28 12.08 11.33 10.85 11.33 11.51 12.28"/>
            <polygon class="cls-2" points="10.29 12.28 11.51 12.28 10.85 11.33 9.63 11.33 10.29 12.28"/>
            <polygon class="cls-2" points="9.06 12.28 10.29 12.28 9.63 11.33 8.4 11.33 9.06 12.28"/>
            <polygon class="cls-1" points="7.84 12.28 9.06 12.28 8.4 11.33 7.18 11.33 7.84 12.28"/>
            <polygon class="cls-34" points="6.61 12.28 7.84 12.28 7.18 11.33 5.95 11.33 6.61 12.28"/>
            <polygon class="cls-9" points="5.39 12.28 6.61 12.28 5.95 11.33 4.73 11.33 5.39 12.28"/>
            <polygon class="cls-2" points="4.16 12.28 5.39 12.28 4.73 11.33 3.5 11.33 4.16 12.28"/>
            <polygon class="cls-13" points="2.94 12.28 4.16 12.28 3.5 11.33 2.28 11.33 2.94 12.28"/>
            <polygon class="cls-1" points="1.71 12.28 2.94 12.28 2.28 11.33 1.05 11.33 1.71 12.28"/>
            <polygon class="cls-38" points=".49 12.28 0 11.58 0 11.33 1.05 11.33 1.71 12.28 .49 12.28"/>
            <polygon class="cls-1" points="0 12.28 0 11.58 .49 12.28 0 12.28"/>
            <polygon class="cls-26" points="25 10.55 24.89 10.39 25 10.39 25 10.55"/>
            <polygon class="cls-26" points="25 11.33 24.32 11.33 23.66 10.39 24.89 10.39 25 10.55 25 11.33"/>
            <polygon class="cls-25" points="23.1 11.33 24.32 11.33 23.66 10.39 22.44 10.39 23.1 11.33"/>
            <polygon class="cls-11" points="21.87 11.33 23.1 11.33 22.44 10.39 21.21 10.39 21.87 11.33"/>
            <polygon class="cls-37" points="20.65 11.33 21.87 11.33 21.21 10.39 19.99 10.39 20.65 11.33"/>
            <polygon class="cls-56" points="19.42 11.33 20.65 11.33 19.99 10.39 18.76 10.39 19.42 11.33"/>
            <polygon class="cls-3" points="18.2 11.33 19.42 11.33 18.76 10.39 17.54 10.39 18.2 11.33"/>
            <polygon class="cls-15" points="16.98 11.33 18.2 11.33 17.54 10.39 16.31 10.39 16.98 11.33"/>
            <polygon class="cls-47" points="15.75 11.33 16.98 11.33 16.31 10.39 15.09 10.39 15.75 11.33"/>
            <polygon class="cls-31" points="14.53 11.33 15.75 11.33 15.09 10.39 13.86 10.39 14.53 11.33"/>
            <polygon class="cls-22" points="13.3 11.33 14.53 11.33 13.86 10.39 12.64 10.39 13.3 11.33"/>
            <polygon class="cls-27" points="12.08 11.33 13.3 11.33 12.64 10.39 11.41 10.39 12.08 11.33"/>
            <polygon class="cls-50" points="10.85 11.33 12.08 11.33 11.41 10.39 10.19 10.39 10.85 11.33"/>
            <polygon class="cls-27" points="9.63 11.33 10.85 11.33 10.19 10.39 8.96 10.39 9.63 11.33"/>
            <polygon class="cls-1" points="8.4 11.33 9.63 11.33 8.96 10.39 7.74 10.39 8.4 11.33"/>
            <polygon class="cls-61" points="7.18 11.33 8.4 11.33 7.74 10.39 6.51 10.39 7.18 11.33"/>
            <polygon class="cls-1" points="5.95 11.33 7.18 11.33 6.51 10.39 5.29 10.39 5.95 11.33"/>
            <polygon class="cls-1" points="4.73 11.33 5.95 11.33 5.29 10.39 4.06 10.39 4.73 11.33"/>
            <polygon class="cls-38" points="3.5 11.33 4.73 11.33 4.06 10.39 2.84 10.39 3.5 11.33"/>
            <polygon class="cls-1" points="2.28 11.33 3.5 11.33 2.84 10.39 1.61 10.39 2.28 11.33"/>
            <polygon class="cls-1" points="1.05 11.33 2.28 11.33 1.61 10.39 .39 10.39 1.05 11.33"/>
            <polygon class="cls-6" points="0 11.33 0 10.39 .39 10.39 1.05 11.33 0 11.33"/>
            <polygon class="cls-54" points="25 10.39 24.89 10.39 24.23 9.44 25 9.44 25 10.39"/>
            <polygon class="cls-11" points="23.66 10.39 24.89 10.39 24.23 9.44 23 9.44 23.66 10.39"/>
            <polygon class="cls-37" points="22.44 10.39 23.66 10.39 23 9.44 21.78 9.44 22.44 10.39"/>
            <polygon class="cls-54" points="21.21 10.39 22.44 10.39 21.78 9.44 20.55 9.44 21.21 10.39"/>
            <polygon class="cls-41" points="19.99 10.39 21.21 10.39 20.55 9.44 19.33 9.44 19.99 10.39"/>
            <polygon class="cls-42" points="18.76 10.39 19.99 10.39 19.33 9.44 18.1 9.44 18.76 10.39"/>
            <polygon class="cls-45" points="17.54 10.39 18.76 10.39 18.1 9.44 16.88 9.44 17.54 10.39"/>
            <polygon class="cls-30" points="16.31 10.39 17.54 10.39 16.88 9.44 15.65 9.44 16.31 10.39"/>
            <polygon class="cls-14" points="15.09 10.39 16.31 10.39 15.65 9.44 14.43 9.44 15.09 10.39"/>
            <polygon class="cls-15" points="13.86 10.39 15.09 10.39 14.43 9.44 13.2 9.44 13.86 10.39"/>
            <polygon class="cls-40" points="12.64 10.39 13.86 10.39 13.2 9.44 11.98 9.44 12.64 10.39"/>
            <polygon class="cls-5" points="11.41 10.39 12.64 10.39 11.98 9.44 10.75 9.44 11.41 10.39"/>
            <polygon class="cls-14" points="10.19 10.39 11.41 10.39 10.75 9.44 9.53 9.44 10.19 10.39"/>
            <polygon class="cls-6" points="8.96 10.39 10.19 10.39 9.53 9.44 8.3 9.44 8.96 10.39"/>
            <polygon class="cls-1" points="7.74 10.39 8.96 10.39 8.3 9.44 7.08 9.44 7.74 10.39"/>
            <polygon class="cls-1" points="6.51 10.39 7.74 10.39 7.08 9.44 5.85 9.44 6.51 10.39"/>
            <polygon class="cls-1" points="5.29 10.39 6.51 10.39 5.85 9.44 4.63 9.44 5.29 10.39"/>
            <polygon class="cls-1" points="4.06 10.39 5.29 10.39 4.63 9.44 3.4 9.44 4.06 10.39"/>
            <polygon class="cls-1" points="2.84 10.39 4.06 10.39 3.4 9.44 2.18 9.44 2.84 10.39"/>
            <polygon class="cls-1" points="1.61 10.39 2.84 10.39 2.18 9.44 .95 9.44 1.61 10.39"/>
            <polygon class="cls-1" points=".39 10.39 0 9.83 0 9.44 .95 9.44 1.61 10.39 .39 10.39"/>
            <polygon class="cls-1" points="0 10.39 0 9.83 .39 10.39 0 10.39"/>
            <polygon class="cls-26" points="25 8.8 24.79 8.5 25 8.5 25 8.8"/>
            <polygon class="cls-26" points="25 9.44 24.23 9.44 23.56 8.5 24.79 8.5 25 8.8 25 9.44"/>
            <polygon class="cls-56" points="23 9.44 24.23 9.44 23.56 8.5 22.34 8.5 23 9.44"/>
            <polygon class="cls-26" points="21.78 9.44 23 9.44 22.34 8.5 21.11 8.5 21.78 9.44"/>
            <polygon class="cls-57" points="20.55 9.44 21.78 9.44 21.11 8.5 19.89 8.5 20.55 9.44"/>
            <polygon class="cls-56" points="19.33 9.44 20.55 9.44 19.89 8.5 18.66 8.5 19.33 9.44"/>
            <polygon class="cls-42" points="18.1 9.44 19.33 9.44 18.66 8.5 17.44 8.5 18.1 9.44"/>
            <polygon class="cls-42" points="16.88 9.44 18.1 9.44 17.44 8.5 16.21 8.5 16.88 9.44"/>
            <polygon class="cls-22" points="15.65 9.44 16.88 9.44 16.21 8.5 14.99 8.5 15.65 9.44"/>
            <polygon class="cls-41" points="14.43 9.44 15.65 9.44 14.99 8.5 13.76 8.5 14.43 9.44"/>
            <polygon class="cls-47" points="13.2 9.44 14.43 9.44 13.76 8.5 12.54 8.5 13.2 9.44"/>
            <polygon class="cls-8" points="11.98 9.44 13.2 9.44 12.54 8.5 11.31 8.5 11.98 9.44"/>
            <polygon class="cls-53" points="10.75 9.44 11.98 9.44 11.31 8.5 10.09 8.5 10.75 9.44"/>
            <polygon class="cls-1" points="9.53 9.44 10.75 9.44 10.09 8.5 8.86 8.5 9.53 9.44"/>
            <polygon class="cls-28" points="8.3 9.44 9.53 9.44 8.86 8.5 7.64 8.5 8.3 9.44"/>
            <polygon class="cls-1" points="7.08 9.44 8.3 9.44 7.64 8.5 6.41 8.5 7.08 9.44"/>
            <polygon class="cls-9" points="5.85 9.44 7.08 9.44 6.41 8.5 5.19 8.5 5.85 9.44"/>
            <polygon class="cls-1" points="4.63 9.44 5.85 9.44 5.19 8.5 3.96 8.5 4.63 9.44"/>
            <polygon class="cls-1" points="3.4 9.44 4.63 9.44 3.96 8.5 2.74 8.5 3.4 9.44"/>
            <polygon class="cls-1" points="2.18 9.44 3.4 9.44 2.74 8.5 1.51 8.5 2.18 9.44"/>
            <polygon class="cls-1" points=".95 9.44 2.18 9.44 1.51 8.5 .29 8.5 .95 9.44"/>
            <polygon class="cls-1" points="0 9.44 0 8.5 .29 8.5 .95 9.44 0 9.44"/>
            <polygon class="cls-57" points="25 8.5 24.79 8.5 24.13 7.56 25 7.56 25 8.5"/>
            <polygon class="cls-56" points="23.56 8.5 24.79 8.5 24.13 7.56 22.9 7.56 23.56 8.5"/>
            <polygon class="cls-29" points="22.34 8.5 23.56 8.5 22.9 7.56 21.68 7.56 22.34 8.5"/>
            <polygon class="cls-3" points="21.11 8.5 22.34 8.5 21.68 7.56 20.45 7.56 21.11 8.5"/>
            <polygon class="cls-45" points="19.89 8.5 21.11 8.5 20.45 7.56 19.23 7.56 19.89 8.5"/>
            <polygon class="cls-14" points="18.66 8.5 19.89 8.5 19.23 7.56 18 7.56 18.66 8.5"/>
            <polygon class="cls-4" points="17.44 8.5 18.66 8.5 18 7.56 16.78 7.56 17.44 8.5"/>
            <polygon class="cls-31" points="16.21 8.5 17.44 8.5 16.78 7.56 15.55 7.56 16.21 8.5"/>
            <polygon class="cls-17" points="14.99 8.5 16.21 8.5 15.55 7.56 14.33 7.56 14.99 8.5"/>
            <polygon class="cls-12" points="13.76 8.5 14.99 8.5 14.33 7.56 13.1 7.56 13.76 8.5"/>
            <polygon class="cls-4" points="12.54 8.5 13.76 8.5 13.1 7.56 11.88 7.56 12.54 8.5"/>
            <polygon class="cls-8" points="11.31 8.5 12.54 8.5 11.88 7.56 10.65 7.56 11.31 8.5"/>
            <polygon class="cls-61" points="10.09 8.5 11.31 8.5 10.65 7.56 9.43 7.56 10.09 8.5"/>
            <polygon class="cls-6" points="8.86 8.5 10.09 8.5 9.43 7.56 8.2 7.56 8.86 8.5"/>
            <polygon class="cls-17" points="7.64 8.5 8.86 8.5 8.2 7.56 6.98 7.56 7.64 8.5"/>
            <polygon class="cls-1" points="6.41 8.5 7.64 8.5 6.98 7.56 5.75 7.56 6.41 8.5"/>
            <polygon class="cls-1" points="5.19 8.5 6.41 8.5 5.75 7.56 4.53 7.56 5.19 8.5"/>
            <polygon class="cls-1" points="3.96 8.5 5.19 8.5 4.53 7.56 3.3 7.56 3.96 8.5"/>
            <polygon class="cls-1" points="2.74 8.5 3.96 8.5 3.3 7.56 2.08 7.56 2.74 8.5"/>
            <polygon class="cls-1" points="1.51 8.5 2.74 8.5 2.08 7.56 .85 7.56 1.51 8.5"/>
            <polygon class="cls-1" points=".29 8.5 0 8.09 0 7.56 .85 7.56 1.51 8.5 .29 8.5"/>
            <polygon class="cls-1" points="0 8.5 0 8.09 .29 8.5 0 8.5"/>
            <polygon class="cls-11" points="25 7.05 24.69 6.61 25 6.61 25 7.05"/>
            <polygon class="cls-3" points="25 7.56 24.13 7.56 23.46 6.61 24.69 6.61 25 7.05 25 7.56"/>
            <polygon class="cls-16" points="22.9 7.56 24.13 7.56 23.46 6.61 22.24 6.61 22.9 7.56"/>
            <polygon class="cls-20" points="21.68 7.56 22.9 7.56 22.24 6.61 21.01 6.61 21.68 7.56"/>
            <polygon class="cls-26" points="20.45 7.56 21.68 7.56 21.01 6.61 19.79 6.61 20.45 7.56"/>
            <polygon class="cls-56" points="19.23 7.56 20.45 7.56 19.79 6.61 18.57 6.61 19.23 7.56"/>
            <polygon class="cls-41" points="18 7.56 19.23 7.56 18.57 6.61 17.34 6.61 18 7.56"/>
            <polygon class="cls-59" points="16.78 7.56 18 7.56 17.34 6.61 16.12 6.61 16.78 7.56"/>
            <polygon class="cls-17" points="15.55 7.56 16.78 7.56 16.12 6.61 14.89 6.61 15.55 7.56"/>
            <polygon class="cls-23" points="14.33 7.56 15.55 7.56 14.89 6.61 13.67 6.61 14.33 7.56"/>
            <polygon class="cls-12" points="13.1 7.56 14.33 7.56 13.67 6.61 12.44 6.61 13.1 7.56"/>
            <polygon class="cls-14" points="11.88 7.56 13.1 7.56 12.44 6.61 11.22 6.61 11.88 7.56"/>
            <polygon class="cls-27" points="10.65 7.56 11.88 7.56 11.22 6.61 9.99 6.61 10.65 7.56"/>
            <polygon class="cls-48" points="9.43 7.56 10.65 7.56 9.99 6.61 8.77 6.61 9.43 7.56"/>
            <polygon class="cls-61" points="8.2 7.56 9.43 7.56 8.77 6.61 7.54 6.61 8.2 7.56"/>
            <polygon class="cls-61" points="6.98 7.56 8.2 7.56 7.54 6.61 6.32 6.61 6.98 7.56"/>
            <polygon class="cls-1" points="5.75 7.56 6.98 7.56 6.32 6.61 5.09 6.61 5.75 7.56"/>
            <polygon class="cls-1" points="4.53 7.56 5.75 7.56 5.09 6.61 3.87 6.61 4.53 7.56"/>
            <polygon class="cls-1" points="3.3 7.56 4.53 7.56 3.87 6.61 2.64 6.61 3.3 7.56"/>
            <polygon class="cls-1" points="2.08 7.56 3.3 7.56 2.64 6.61 1.42 6.61 2.08 7.56"/>
            <polygon class="cls-1" points=".85 7.56 2.08 7.56 1.42 6.61 .19 6.61 .85 7.56"/>
            <polygon class="cls-1" points="0 7.56 0 6.61 .19 6.61 .85 7.56 0 7.56"/>
            <polygon class="cls-26" points="25 6.61 24.69 6.61 24.03 5.67 25 5.67 25 6.61"/>
            <polygon class="cls-3" points="23.46 6.61 24.69 6.61 24.03 5.67 22.8 5.67 23.46 6.61"/>
            <polygon class="cls-56" points="22.24 6.61 23.46 6.61 22.8 5.67 21.58 5.67 22.24 6.61"/>
            <polygon class="cls-57" points="21.01 6.61 22.24 6.61 21.58 5.67 20.35 5.67 21.01 6.61"/>
            <polygon class="cls-57" points="19.79 6.61 21.01 6.61 20.35 5.67 19.13 5.67 19.79 6.61"/>
            <polygon class="cls-59" points="18.57 6.61 19.79 6.61 19.13 5.67 17.9 5.67 18.57 6.61"/>
            <polygon class="cls-33" points="17.34 6.61 18.57 6.61 17.9 5.67 16.68 5.67 17.34 6.61"/>
            <polygon class="cls-48" points="16.12 6.61 17.34 6.61 16.68 5.67 15.45 5.67 16.12 6.61"/>
            <polygon class="cls-23" points="14.89 6.61 16.12 6.61 15.45 5.67 14.23 5.67 14.89 6.61"/>
            <polygon class="cls-22" points="13.67 6.61 14.89 6.61 14.23 5.67 13 5.67 13.67 6.61"/>
            <polygon class="cls-36" points="12.44 6.61 13.67 6.61 13 5.67 11.78 5.67 12.44 6.61"/>
            <polygon class="cls-50" points="11.22 6.61 12.44 6.61 11.78 5.67 10.55 5.67 11.22 6.61"/>
            <polygon class="cls-36" points="9.99 6.61 11.22 6.61 10.55 5.67 9.33 5.67 9.99 6.61"/>
            <polygon class="cls-36" points="8.77 6.61 9.99 6.61 9.33 5.67 8.1 5.67 8.77 6.61"/>
            <polygon class="cls-1" points="7.54 6.61 8.77 6.61 8.1 5.67 6.88 5.67 7.54 6.61"/>
            <polygon class="cls-5" points="6.32 6.61 7.54 6.61 6.88 5.67 5.65 5.67 6.32 6.61"/>
            <polygon class="cls-1" points="5.09 6.61 6.32 6.61 5.65 5.67 4.43 5.67 5.09 6.61"/>
            <polygon class="cls-1" points="3.87 6.61 5.09 6.61 4.43 5.67 3.2 5.67 3.87 6.61"/>
            <polygon class="cls-1" points="2.64 6.61 3.87 6.61 3.2 5.67 1.98 5.67 2.64 6.61"/>
            <polygon class="cls-1" points="1.42 6.61 2.64 6.61 1.98 5.67 .75 5.67 1.42 6.61"/>
            <polygon class="cls-1" points=".19 6.61 0 6.34 0 5.67 .75 5.67 1.42 6.61 .19 6.61"/>
            <polygon class="cls-1" points="0 6.61 0 6.34 .19 6.61 0 6.61"/>
            <polygon class="cls-52" points="25 5.31 24.59 4.72 25 4.72 25 5.31"/>
            <polygon class="cls-26" points="25 5.67 24.03 5.67 23.37 4.72 24.59 4.72 25 5.31 25 5.67"/>
            <polygon class="cls-52" points="22.8 5.67 24.03 5.67 23.37 4.72 22.14 4.72 22.8 5.67"/>
            <polygon class="cls-41" points="21.58 5.67 22.8 5.67 22.14 4.72 20.92 4.72 21.58 5.67"/>
            <polygon class="cls-16" points="20.35 5.67 21.58 5.67 20.92 4.72 19.69 4.72 20.35 5.67"/>
            <polygon class="cls-56" points="19.13 5.67 20.35 5.67 19.69 4.72 18.47 4.72 19.13 5.67"/>
            <polygon class="cls-56" points="17.9 5.67 19.13 5.67 18.47 4.72 17.24 4.72 17.9 5.67"/>
            <polygon class="cls-4" points="16.68 5.67 17.9 5.67 17.24 4.72 16.02 4.72 16.68 5.67"/>
            <polygon class="cls-1" points="15.45 5.67 16.68 5.67 16.02 4.72 14.79 4.72 15.45 5.67"/>
            <polygon class="cls-14" points="14.23 5.67 15.45 5.67 14.79 4.72 13.57 4.72 14.23 5.67"/>
            <polygon class="cls-40" points="13 5.67 14.23 5.67 13.57 4.72 12.34 4.72 13 5.67"/>
            <polygon class="cls-22" points="11.78 5.67 13 5.67 12.34 4.72 11.12 4.72 11.78 5.67"/>
            <polygon class="cls-61" points="10.55 5.67 11.78 5.67 11.12 4.72 9.89 4.72 10.55 5.67"/>
            <polygon class="cls-51" points="9.33 5.67 10.55 5.67 9.89 4.72 8.67 4.72 9.33 5.67"/>
            <polygon class="cls-50" points="8.1 5.67 9.33 5.67 8.67 4.72 7.44 4.72 8.1 5.67"/>
            <polygon class="cls-6" points="6.88 5.67 8.1 5.67 7.44 4.72 6.22 4.72 6.88 5.67"/>
            <polygon class="cls-1" points="5.65 5.67 6.88 5.67 6.22 4.72 4.99 4.72 5.65 5.67"/>
            <polygon class="cls-1" points="4.43 5.67 5.65 5.67 4.99 4.72 3.77 4.72 4.43 5.67"/>
            <polygon class="cls-1" points="3.2 5.67 4.43 5.67 3.77 4.72 2.54 4.72 3.2 5.67"/>
            <polygon class="cls-1" points="1.98 5.67 3.2 5.67 2.54 4.72 1.32 4.72 1.98 5.67"/>
            <polygon class="cls-1" points=".75 5.67 1.98 5.67 1.32 4.72 .09 4.72 .75 5.67"/>
            <polygon class="cls-1" points="0 5.67 0 4.72 .09 4.72 .75 5.67 0 5.67"/>
            <polygon class="cls-3" points="25 4.72 24.59 4.72 23.93 3.78 25 3.78 25 4.72"/>
            <polygon class="cls-29" points="23.37 4.72 24.59 4.72 23.93 3.78 22.7 3.78 23.37 4.72"/>
            <polygon class="cls-29" points="22.14 4.72 23.37 4.72 22.7 3.78 21.48 3.78 22.14 4.72"/>
            <polygon class="cls-45" points="20.92 4.72 22.14 4.72 21.48 3.78 20.25 3.78 20.92 4.72"/>
            <polygon class="cls-12" points="19.69 4.72 20.92 4.72 20.25 3.78 19.03 3.78 19.69 4.72"/>
            <polygon class="cls-31" points="18.47 4.72 19.69 4.72 19.03 3.78 17.8 3.78 18.47 4.72"/>
            <polygon class="cls-43" points="17.24 4.72 18.47 4.72 17.8 3.78 16.58 3.78 17.24 4.72"/>
            <polygon class="cls-43" points="16.02 4.72 17.24 4.72 16.58 3.78 15.35 3.78 16.02 4.72"/>
            <polygon class="cls-23" points="14.79 4.72 16.02 4.72 15.35 3.78 14.13 3.78 14.79 4.72"/>
            <polygon class="cls-53" points="13.57 4.72 14.79 4.72 14.13 3.78 12.9 3.78 13.57 4.72"/>
            <polygon class="cls-34" points="12.34 4.72 13.57 4.72 12.9 3.78 11.68 3.78 12.34 4.72"/>
            <polygon class="cls-38" points="11.12 4.72 12.34 4.72 11.68 3.78 10.45 3.78 11.12 4.72"/>
            <polygon class="cls-9" points="9.89 4.72 11.12 4.72 10.45 3.78 9.23 3.78 9.89 4.72"/>
            <polygon class="cls-27" points="8.67 4.72 9.89 4.72 9.23 3.78 8 3.78 8.67 4.72"/>
            <polygon class="cls-48" points="7.44 4.72 8.67 4.72 8 3.78 6.78 3.78 7.44 4.72"/>
            <polygon class="cls-13" points="6.22 4.72 7.44 4.72 6.78 3.78 5.55 3.78 6.22 4.72"/>
            <polygon class="cls-1" points="4.99 4.72 6.22 4.72 5.55 3.78 4.33 3.78 4.99 4.72"/>
            <polygon class="cls-1" points="3.77 4.72 4.99 4.72 4.33 3.78 3.1 3.78 3.77 4.72"/>
            <polygon class="cls-1" points="2.54 4.72 3.77 4.72 3.1 3.78 1.88 3.78 2.54 4.72"/>
            <polygon class="cls-1" points="1.32 4.72 2.54 4.72 1.88 3.78 .65 3.78 1.32 4.72"/>
            <polygon class="cls-1" points=".09 4.72 0 4.59 0 3.78 .65 3.78 1.32 4.72 .09 4.72"/>
            <polygon class="cls-1" points="0 4.72 0 4.59 .09 4.72 0 4.72"/>
            <polygon class="cls-29" points="25 3.56 24.49 2.83 25 2.83 25 3.56"/>
            <polygon class="cls-52" points="25 3.78 23.93 3.78 23.27 2.83 24.49 2.83 25 3.56 25 3.78"/>
            <polygon class="cls-29" points="22.7 3.78 23.93 3.78 23.27 2.83 22.04 2.83 22.7 3.78"/>
            <polygon class="cls-18" points="21.48 3.78 22.7 3.78 22.04 2.83 20.82 2.83 21.48 3.78"/>
            <polygon class="cls-57" points="20.25 3.78 21.48 3.78 20.82 2.83 19.59 2.83 20.25 3.78"/>
            <polygon class="cls-15" points="19.03 3.78 20.25 3.78 19.59 2.83 18.37 2.83 19.03 3.78"/>
            <polygon class="cls-14" points="17.8 3.78 19.03 3.78 18.37 2.83 17.14 2.83 17.8 3.78"/>
            <polygon class="cls-5" points="16.58 3.78 17.8 3.78 17.14 2.83 15.92 2.83 16.58 3.78"/>
            <polygon class="cls-5" points="15.35 3.78 16.58 3.78 15.92 2.83 14.69 2.83 15.35 3.78"/>
            <polygon class="cls-51" points="14.13 3.78 15.35 3.78 14.69 2.83 13.47 2.83 14.13 3.78"/>
            <polygon class="cls-1" points="12.9 3.78 14.13 3.78 13.47 2.83 12.24 2.83 12.9 3.78"/>
            <polygon class="cls-43" points="11.68 3.78 12.9 3.78 12.24 2.83 11.02 2.83 11.68 3.78"/>
            <polygon class="cls-1" points="10.45 3.78 11.68 3.78 11.02 2.83 9.79 2.83 10.45 3.78"/>
            <polygon class="cls-1" points="9.23 3.78 10.45 3.78 9.79 2.83 8.57 2.83 9.23 3.78"/>
            <polygon class="cls-1" points="8 3.78 9.23 3.78 8.57 2.83 7.34 2.83 8 3.78"/>
            <polygon class="cls-1" points="6.78 3.78 8 3.78 7.34 2.83 6.12 2.83 6.78 3.78"/>
            <polygon class="cls-1" points="5.55 3.78 6.78 3.78 6.12 2.83 4.89 2.83 5.55 3.78"/>
            <polygon class="cls-1" points="4.33 3.78 5.55 3.78 4.89 2.83 3.67 2.83 4.33 3.78"/>
            <polygon class="cls-1" points="3.1 3.78 4.33 3.78 3.67 2.83 2.44 2.83 3.1 3.78"/>
            <polygon class="cls-1" points="1.88 3.78 3.1 3.78 2.44 2.83 1.22 2.83 1.88 3.78"/>
            <polygon class="cls-1" points=".65 3.78 0 2.84 0 2.83 1.22 2.83 1.88 3.78 .65 3.78"/>
            <polygon class="cls-1" points="0 3.78 0 2.84 .65 3.78 0 3.78"/>
            <polygon class="cls-12" points="25 2.83 24.49 2.83 23.83 1.89 25 1.89 25 2.83"/>
            <polygon class="cls-3" points="23.27 2.83 24.49 2.83 23.83 1.89 22.61 1.89 23.27 2.83"/>
            <polygon class="cls-26" points="22.04 2.83 23.27 2.83 22.61 1.89 21.38 1.89 22.04 2.83"/>
            <polygon class="cls-55" points="20.82 2.83 22.04 2.83 21.38 1.89 20.16 1.89 20.82 2.83"/>
            <polygon class="cls-3" points="19.59 2.83 20.82 2.83 20.16 1.89 18.93 1.89 19.59 2.83"/>
            <polygon class="cls-57" points="18.37 2.83 19.59 2.83 18.93 1.89 17.71 1.89 18.37 2.83"/>
            <polygon class="cls-17" points="17.14 2.83 18.37 2.83 17.71 1.89 16.48 1.89 17.14 2.83"/>
            <polygon class="cls-46" points="15.92 2.83 17.14 2.83 16.48 1.89 15.26 1.89 15.92 2.83"/>
            <polygon class="cls-60" points="14.69 2.83 15.92 2.83 15.26 1.89 14.03 1.89 14.69 2.83"/>
            <polygon class="cls-34" points="13.47 2.83 14.69 2.83 14.03 1.89 12.81 1.89 13.47 2.83"/>
            <polygon class="cls-1" points="12.24 2.83 13.47 2.83 12.81 1.89 11.58 1.89 12.24 2.83"/>
            <polygon class="cls-1" points="11.02 2.83 12.24 2.83 11.58 1.89 10.36 1.89 11.02 2.83"/>
            <polygon class="cls-1" points="9.79 2.83 11.02 2.83 10.36 1.89 9.13 1.89 9.79 2.83"/>
            <polygon class="cls-1" points="8.57 2.83 9.79 2.83 9.13 1.89 7.91 1.89 8.57 2.83"/>
            <polygon class="cls-1" points="7.34 2.83 8.57 2.83 7.91 1.89 6.68 1.89 7.34 2.83"/>
            <polygon class="cls-1" points="6.12 2.83 7.34 2.83 6.68 1.89 5.46 1.89 6.12 2.83"/>
            <polygon class="cls-1" points="4.89 2.83 6.12 2.83 5.46 1.89 4.23 1.89 4.89 2.83"/>
            <polygon class="cls-1" points="3.67 2.83 4.89 2.83 4.23 1.89 3.01 1.89 3.67 2.83"/>
            <polygon class="cls-1" points="2.44 2.83 3.67 2.83 3.01 1.89 1.78 1.89 2.44 2.83"/>
            <polygon class="cls-1" points="1.22 2.83 2.44 2.83 1.78 1.89 .56 1.89 1.22 2.83"/>
            <polygon class="cls-1" points="0 2.83 0 1.89 .56 1.89 1.22 2.83 0 2.83"/>
            <polygon class="cls-12" points="25 1.81 24.39 .94 25 .94 25 1.81"/>
            <polygon class="cls-31" points="25 1.89 23.83 1.89 23.17 .94 24.39 .94 25 1.81 25 1.89"/>
            <polygon class="cls-11" points="22.61 1.89 23.83 1.89 23.17 .94 21.94 .94 22.61 1.89"/>
            <polygon class="cls-54" points="21.38 1.89 22.61 1.89 21.94 .94 20.72 .94 21.38 1.89"/>
            <polygon class="cls-24" points="20.16 1.89 21.38 1.89 20.72 .94 19.49 .94 20.16 1.89"/>
            <polygon class="cls-16" points="18.93 1.89 20.16 1.89 19.49 .94 18.27 .94 18.93 1.89"/>
            <polygon class="cls-54" points="17.71 1.89 18.93 1.89 18.27 .94 17.04 .94 17.71 1.89"/>
            <polygon class="cls-17" points="16.48 1.89 17.71 1.89 17.04 .94 15.82 .94 16.48 1.89"/>
            <polygon class="cls-13" points="15.26 1.89 16.48 1.89 15.82 .94 14.59 .94 15.26 1.89"/>
            <polygon class="cls-6" points="14.03 1.89 15.26 1.89 14.59 .94 13.37 .94 14.03 1.89"/>
            <polygon class="cls-1" points="12.81 1.89 14.03 1.89 13.37 .94 12.14 .94 12.81 1.89"/>
            <polygon class="cls-1" points="11.58 1.89 12.81 1.89 12.14 .94 10.92 .94 11.58 1.89"/>
            <polygon class="cls-1" points="10.36 1.89 11.58 1.89 10.92 .94 9.69 .94 10.36 1.89"/>
            <polygon class="cls-1" points="9.13 1.89 10.36 1.89 9.69 .94 8.47 .94 9.13 1.89"/>
            <polygon class="cls-1" points="7.91 1.89 9.13 1.89 8.47 .94 7.24 .94 7.91 1.89"/>
            <polygon class="cls-6" points="6.68 1.89 7.91 1.89 7.24 .94 6.02 .94 6.68 1.89"/>
            <polygon class="cls-13" points="5.46 1.89 6.68 1.89 6.02 .94 4.79 .94 5.46 1.89"/>
            <polygon class="cls-1" points="4.23 1.89 5.46 1.89 4.79 .94 3.57 .94 4.23 1.89"/>
            <polygon class="cls-1" points="3.01 1.89 4.23 1.89 3.57 .94 2.34 .94 3.01 1.89"/>
            <polygon class="cls-1" points="1.78 1.89 3.01 1.89 2.34 .94 1.12 .94 1.78 1.89"/>
            <polygon class="cls-1" points=".56 1.89 0 1.1 0 .94 1.12 .94 1.78 1.89 .56 1.89"/>
            <polygon class="cls-1" points="0 1.89 0 1.1 .56 1.89 0 1.89"/>
            <polygon class="cls-14" points="25 .94 24.39 .94 23.73 0 24.96 0 25 .06 25 .94"/>
            <polygon class="cls-15" points="23.17 .94 24.39 .94 23.73 0 22.51 0 23.17 .94"/>
            <polygon class="cls-56" points="21.94 .94 23.17 .94 22.51 0 21.28 0 21.94 .94"/>
            <polygon class="cls-29" points="20.72 .94 21.94 .94 21.28 0 20.06 0 20.72 .94"/>
            <polygon class="cls-41" points="19.49 .94 20.72 .94 20.06 0 18.83 0 19.49 .94"/>
            <polygon class="cls-52" points="18.27 .94 19.49 .94 18.83 0 17.61 0 18.27 .94"/>
            <polygon class="cls-37" points="17.04 .94 18.27 .94 17.61 0 16.38 0 17.04 .94"/>
            <polygon class="cls-51" points="15.82 .94 17.04 .94 16.38 0 15.16 0 15.82 .94"/>
            <polygon class="cls-1" points="14.59 .94 15.82 .94 15.16 0 13.93 0 14.59 .94"/>
            <polygon class="cls-1" points="13.37 .94 14.59 .94 13.93 0 12.71 0 13.37 .94"/>
            <polygon class="cls-1" points="12.14 .94 13.37 .94 12.71 0 11.48 0 12.14 .94"/>
            <polygon class="cls-1" points="10.92 .94 12.14 .94 11.48 0 10.26 0 10.92 .94"/>
            <polygon class="cls-1" points="9.69 .94 10.92 .94 10.26 0 9.03 0 9.69 .94"/>
            <polygon class="cls-1" points="8.47 .94 9.69 .94 9.03 0 7.81 0 8.47 .94"/>
            <polygon class="cls-1" points="7.24 .94 8.47 .94 7.81 0 6.58 0 7.24 .94"/>
            <polygon class="cls-60" points="6.02 .94 7.24 .94 6.58 0 5.36 0 6.02 .94"/>
            <polygon class="cls-60" points="4.79 .94 6.02 .94 5.36 0 4.13 0 4.79 .94"/>
            <polygon class="cls-1" points="3.57 .94 4.79 .94 4.13 0 2.91 0 3.57 .94"/>
            <polygon class="cls-1" points="2.34 .94 3.57 .94 2.91 0 1.68 0 2.34 .94"/>
            <polygon class="cls-1" points="1.12 .94 2.34 .94 1.68 0 .46 0 1.12 .94"/>
            <polygon class="cls-1" points="0 .94 0 0 .46 0 1.12 .94 0 .94"/>
          </g>
        </g>
        <rect class="cls-49" x="0" y="0" width="25" height="17"/>
      </g>
    </g>
  </g>
</svg>